<?xml version="1.0" encoding="UTF-8" standalone="no"?>
<!DOCTYPE svg PUBLIC "-//W3C//DTD SVG 1.1//EN"
 "http://www.w3.org/Graphics/SVG/1.1/DTD/svg11.dtd">
<!-- Generated by graphviz version 3.0.0 (20220315.2325)
 -->
<!-- Pages: 1 -->
<svg width="176pt" height="137pt"
 viewBox="0.00 0.00 175.74 136.56" xmlns="http://www.w3.org/2000/svg" xmlns:xlink="http://www.w3.org/1999/xlink">
<g id="graph0" class="graph" transform="scale(1 1) rotate(0) translate(4 132.56)">
<polygon fill="white" stroke="transparent" points="-4,4 -4,-132.56 171.74,-132.56 171.74,4 -4,4"/>
<!-- vara1 -->
<g id="node1" class="node">
<title>vara1</title>
<ellipse fill="none" stroke="black" cx="68.74" cy="-90" rx="27" ry="18"/>
<text text-anchor="middle" x="68.74" y="-86.3" font-family="Times,serif" font-size="14.00">a1</text>
</g>
<!-- factor0 -->
<g id="node4" class="node">
<title>factor0</title>
<ellipse fill="black" stroke="black" cx="1.8" cy="-126.76" rx="1.8" ry="1.8"/>
</g>
<!-- vara1&#45;&#45;factor0 -->
<g id="edge1" class="edge">
<title>vara1&#45;&#45;factor0</title>
<path fill="none" stroke="black" d="M47.56,-101.63C31.01,-110.72 9.81,-122.36 3.59,-125.78"/>
</g>
<!-- vara2 -->
<g id="node2" class="node">
<title>vara2</title>
<ellipse fill="none" stroke="black" cx="140.74" cy="-90" rx="27" ry="18"/>
<text text-anchor="middle" x="140.74" y="-86.3" font-family="Times,serif" font-size="14.00">a2</text>
</g>
<!-- vara2&#45;&#45;vara1 -->
<g id="edge2" class="edge">
<title>vara2&#45;&#45;vara1</title>
<path fill="none" stroke="black" d="M113.52,-90C107.78,-90 101.73,-90 96,-90"/>
</g>
<!-- varb1 -->
<g id="node3" class="node">
<title>varb1</title>
<ellipse fill="none" stroke="black" cx="68.74" cy="-18" rx="27" ry="18"/>
<text text-anchor="middle" x="68.74" y="-14.3" font-family="Times,serif" font-size="14.00">b1</text>
</g>
<!-- varb1&#45;&#45;vara1 -->
<g id="edge3" class="edge">
<title>varb1&#45;&#45;vara1</title>
<path fill="none" stroke="black" d="M68.74,-36.17C68.74,-47 68.74,-60.71 68.74,-71.59"/>
</g>
</g>
</svg>
