<?xml version="1.0" encoding="UTF-8" standalone="no"?>
<!DOCTYPE svg PUBLIC "-//W3C//DTD SVG 1.1//EN"
 "http://www.w3.org/Graphics/SVG/1.1/DTD/svg11.dtd">
<!-- Generated by graphviz version 3.0.0 (20220315.2325)
 -->
<!-- Pages: 1 -->
<svg width="222pt" height="360pt"
 viewBox="0.00 0.00 222.20 360.00" xmlns="http://www.w3.org/2000/svg" xmlns:xlink="http://www.w3.org/1999/xlink">
<g id="graph0" class="graph" transform="scale(0.811542 0.811542) rotate(0) translate(4 439.6)">
<polygon fill="white" stroke="transparent" points="-4,4 -4,-439.6 269.8,-439.6 269.8,4 -4,4"/>
<!-- vara1 -->
<g id="node1" class="node">
<title>vara1</title>
<ellipse fill="none" stroke="black" cx="145" cy="-57.6" rx="27" ry="18"/>
<text text-anchor="middle" x="145" y="-53.9" font-family="Times,serif" font-size="14.00">a1</text>
</g>
<!-- factor0 -->
<g id="node13" class="node">
<title>factor0</title>
<ellipse fill="black" stroke="black" cx="145" cy="-1.8" rx="1.8" ry="1.8"/>
</g>
<!-- vara1&#45;&#45;factor0 -->
<g id="edge1" class="edge">
<title>vara1&#45;&#45;factor0</title>
<path fill="none" stroke="black" d="M145,-39.58C145,-25.79 145,-7.97 145,-3.73"/>
</g>
<!-- vara2 -->
<g id="node2" class="node">
<title>vara2</title>
<ellipse fill="none" stroke="black" cx="98" cy="-129.6" rx="27" ry="18"/>
<text text-anchor="middle" x="98" y="-125.9" font-family="Times,serif" font-size="14.00">a2</text>
</g>
<!-- vara2&#45;&#45;vara1 -->
<g id="edge3" class="edge">
<title>vara2&#45;&#45;vara1</title>
<path fill="none" stroke="black" d="M108.67,-112.72C116.36,-101.26 126.7,-85.86 134.38,-74.42"/>
</g>
<!-- factor1 -->
<g id="node14" class="node">
<title>factor1</title>
<ellipse fill="black" stroke="black" cx="98" cy="-57.6" rx="1.8" ry="1.8"/>
</g>
<!-- vara2&#45;&#45;factor1 -->
<g id="edge2" class="edge">
<title>vara2&#45;&#45;factor1</title>
<path fill="none" stroke="black" d="M98,-111.3C98,-92.51 98,-64.5 98,-59.41"/>
</g>
<!-- vara3 -->
<g id="node3" class="node">
<title>vara3</title>
<ellipse fill="none" stroke="black" cx="51" cy="-201.6" rx="27" ry="18"/>
<text text-anchor="middle" x="51" y="-197.9" font-family="Times,serif" font-size="14.00">a3</text>
</g>
<!-- vara3&#45;&#45;vara2 -->
<g id="edge5" class="edge">
<title>vara3&#45;&#45;vara2</title>
<path fill="none" stroke="black" d="M61.67,-184.72C69.36,-173.26 79.7,-157.86 87.38,-146.42"/>
</g>
<!-- factor3 -->
<g id="node15" class="node">
<title>factor3</title>
<ellipse fill="black" stroke="black" cx="51" cy="-129.6" rx="1.8" ry="1.8"/>
</g>
<!-- vara3&#45;&#45;factor3 -->
<g id="edge4" class="edge">
<title>vara3&#45;&#45;factor3</title>
<path fill="none" stroke="black" d="M51,-183.3C51,-164.51 51,-136.5 51,-131.41"/>
</g>
<!-- vara4 -->
<g id="node4" class="node">
<title>vara4</title>
<ellipse fill="none" stroke="black" cx="27" cy="-273.6" rx="27" ry="18"/>
<text text-anchor="middle" x="27" y="-269.9" font-family="Times,serif" font-size="14.00">a4</text>
</g>
<!-- vara4&#45;&#45;vara3 -->
<g id="edge7" class="edge">
<title>vara4&#45;&#45;vara3</title>
<path fill="none" stroke="black" d="M32.81,-255.65C36.58,-244.65 41.48,-230.36 45.24,-219.39"/>
</g>
<!-- factor5 -->
<g id="node16" class="node">
<title>factor5</title>
<ellipse fill="black" stroke="black" cx="4" cy="-201.6" rx="1.8" ry="1.8"/>
</g>
<!-- vara4&#45;&#45;factor5 -->
<g id="edge6" class="edge">
<title>vara4&#45;&#45;factor5</title>
<path fill="none" stroke="black" d="M21.43,-255.65C15.26,-236.88 5.96,-208.56 4.27,-203.42"/>
</g>
<!-- varb1 -->
<g id="node5" class="node">
<title>varb1</title>
<ellipse fill="none" stroke="black" cx="192" cy="-129.6" rx="27" ry="18"/>
<text text-anchor="middle" x="192" y="-125.9" font-family="Times,serif" font-size="14.00">b1</text>
</g>
<!-- varb1&#45;&#45;vara1 -->
<g id="edge9" class="edge">
<title>varb1&#45;&#45;vara1</title>
<path fill="none" stroke="black" d="M181.33,-112.72C173.64,-101.26 163.3,-85.86 155.62,-74.42"/>
</g>
<!-- factor7 -->
<g id="node17" class="node">
<title>factor7</title>
<ellipse fill="black" stroke="black" cx="192" cy="-57.6" rx="1.8" ry="1.8"/>
</g>
<!-- varb1&#45;&#45;factor7 -->
<g id="edge8" class="edge">
<title>varb1&#45;&#45;factor7</title>
<path fill="none" stroke="black" d="M192,-111.3C192,-92.51 192,-64.5 192,-59.41"/>
</g>
<!-- varb2 -->
<g id="node6" class="node">
<title>varb2</title>
<ellipse fill="none" stroke="black" cx="145" cy="-201.6" rx="27" ry="18"/>
<text text-anchor="middle" x="145" y="-197.9" font-family="Times,serif" font-size="14.00">b2</text>
</g>
<!-- varb2&#45;&#45;vara2 -->
<g id="edge12" class="edge">
<title>varb2&#45;&#45;vara2</title>
<path fill="none" stroke="black" d="M134.33,-184.72C126.64,-173.26 116.3,-157.86 108.62,-146.42"/>
</g>
<!-- varb2&#45;&#45;varb1 -->
<g id="edge11" class="edge">
<title>varb2&#45;&#45;varb1</title>
<path fill="none" stroke="black" d="M155.67,-184.72C163.36,-173.26 173.7,-157.86 181.38,-146.42"/>
</g>
<!-- factor9 -->
<g id="node18" class="node">
<title>factor9</title>
<ellipse fill="black" stroke="black" cx="145" cy="-129.6" rx="1.8" ry="1.8"/>
</g>
<!-- varb2&#45;&#45;factor9 -->
<g id="edge10" class="edge">
<title>varb2&#45;&#45;factor9</title>
<path fill="none" stroke="black" d="M145,-183.3C145,-164.51 145,-136.5 145,-131.41"/>
</g>
<!-- varb3 -->
<g id="node7" class="node">
<title>varb3</title>
<ellipse fill="none" stroke="black" cx="121" cy="-273.6" rx="27" ry="18"/>
<text text-anchor="middle" x="121" y="-269.9" font-family="Times,serif" font-size="14.00">b3</text>
</g>
<!-- varb3&#45;&#45;vara3 -->
<g id="edge15" class="edge">
<title>varb3&#45;&#45;vara3</title>
<path fill="none" stroke="black" d="M106.5,-258.1C94.48,-246.08 77.49,-229.09 65.49,-217.09"/>
</g>
<!-- varb3&#45;&#45;varb2 -->
<g id="edge14" class="edge">
<title>varb3&#45;&#45;varb2</title>
<path fill="none" stroke="black" d="M126.81,-255.65C130.58,-244.65 135.48,-230.36 139.24,-219.39"/>
</g>
<!-- factor12 -->
<g id="node19" class="node">
<title>factor12</title>
<ellipse fill="black" stroke="black" cx="98" cy="-201.6" rx="1.8" ry="1.8"/>
</g>
<!-- varb3&#45;&#45;factor12 -->
<g id="edge13" class="edge">
<title>varb3&#45;&#45;factor12</title>
<path fill="none" stroke="black" d="M115.43,-255.65C109.26,-236.88 99.96,-208.56 98.27,-203.42"/>
</g>
<!-- varb4 -->
<g id="node8" class="node">
<title>varb4</title>
<ellipse fill="none" stroke="black" cx="97" cy="-345.6" rx="27" ry="18"/>
<text text-anchor="middle" x="97" y="-341.9" font-family="Times,serif" font-size="14.00">b4</text>
</g>
<!-- varb4&#45;&#45;vara4 -->
<g id="edge18" class="edge">
<title>varb4&#45;&#45;vara4</title>
<path fill="none" stroke="black" d="M82.5,-330.1C70.48,-318.08 53.49,-301.09 41.49,-289.09"/>
</g>
<!-- varb4&#45;&#45;varb3 -->
<g id="edge17" class="edge">
<title>varb4&#45;&#45;varb3</title>
<path fill="none" stroke="black" d="M102.81,-327.65C106.58,-316.65 111.48,-302.36 115.24,-291.39"/>
</g>
<!-- factor15 -->
<g id="node20" class="node">
<title>factor15</title>
<ellipse fill="black" stroke="black" cx="74" cy="-273.6" rx="1.8" ry="1.8"/>
</g>
<!-- varb4&#45;&#45;factor15 -->
<g id="edge16" class="edge">
<title>varb4&#45;&#45;factor15</title>
<path fill="none" stroke="black" d="M91.43,-327.65C85.26,-308.88 75.96,-280.56 74.27,-275.42"/>
</g>
<!-- varc1 -->
<g id="node9" class="node">
<title>varc1</title>
<ellipse fill="none" stroke="black" cx="217" cy="-201.6" rx="27" ry="18"/>
<text text-anchor="middle" x="217" y="-197.9" font-family="Times,serif" font-size="14.00">c1</text>
</g>
<!-- varc1&#45;&#45;varb1 -->
<g id="edge20" class="edge">
<title>varc1&#45;&#45;varb1</title>
<path fill="none" stroke="black" d="M211.08,-184.01C207.15,-173.01 202.01,-158.63 198.06,-147.56"/>
</g>
<!-- factor18 -->
<g id="node21" class="node">
<title>factor18</title>
<ellipse fill="black" stroke="black" cx="239" cy="-129.6" rx="1.8" ry="1.8"/>
</g>
<!-- varc1&#45;&#45;factor18 -->
<g id="edge19" class="edge">
<title>varc1&#45;&#45;factor18</title>
<path fill="none" stroke="black" d="M222.33,-183.65C228.23,-164.88 237.13,-136.56 238.74,-131.42"/>
</g>
<!-- varc2 -->
<g id="node10" class="node">
<title>varc2</title>
<ellipse fill="none" stroke="black" cx="193" cy="-273.6" rx="27" ry="18"/>
<text text-anchor="middle" x="193" y="-269.9" font-family="Times,serif" font-size="14.00">c2</text>
</g>
<!-- varc2&#45;&#45;varb2 -->
<g id="edge23" class="edge">
<title>varc2&#45;&#45;varb2</title>
<path fill="none" stroke="black" d="M182.11,-256.72C174.25,-245.26 163.69,-229.86 155.85,-218.42"/>
</g>
<!-- varc2&#45;&#45;varc1 -->
<g id="edge22" class="edge">
<title>varc2&#45;&#45;varc1</title>
<path fill="none" stroke="black" d="M198.81,-255.65C202.58,-244.65 207.48,-230.36 211.24,-219.39"/>
</g>
<!-- factor20 -->
<g id="node22" class="node">
<title>factor20</title>
<ellipse fill="black" stroke="black" cx="264" cy="-201.6" rx="1.8" ry="1.8"/>
</g>
<!-- varc2&#45;&#45;factor20 -->
<g id="edge21" class="edge">
<title>varc2&#45;&#45;factor20</title>
<path fill="none" stroke="black" d="M210.17,-259.54C222.83,-249.43 240.03,-234.66 253,-219.6 257.77,-214.06 262.05,-206.3 263.49,-203.58"/>
</g>
<!-- varc3 -->
<g id="node11" class="node">
<title>varc3</title>
<ellipse fill="none" stroke="black" cx="181" cy="-345.6" rx="27" ry="18"/>
<text text-anchor="middle" x="181" y="-341.9" font-family="Times,serif" font-size="14.00">c3</text>
</g>
<!-- varc3&#45;&#45;varb3 -->
<g id="edge26" class="edge">
<title>varc3&#45;&#45;varb3</title>
<path fill="none" stroke="black" d="M167.98,-329.41C157.92,-317.67 144.05,-301.49 133.99,-289.76"/>
</g>
<!-- varc3&#45;&#45;varc2 -->
<g id="edge25" class="edge">
<title>varc3&#45;&#45;varc2</title>
<path fill="none" stroke="black" d="M183.9,-327.65C185.76,-316.81 188.17,-302.78 190.04,-291.88"/>
</g>
<!-- factor23 -->
<g id="node23" class="node">
<title>factor23</title>
<ellipse fill="black" stroke="black" cx="240" cy="-273.6" rx="1.8" ry="1.8"/>
</g>
<!-- varc3&#45;&#45;factor23 -->
<g id="edge24" class="edge">
<title>varc3&#45;&#45;factor23</title>
<path fill="none" stroke="black" d="M195.54,-329.86C205.43,-319.52 218.56,-305.18 229,-291.6 233.45,-285.8 237.93,-278.2 239.45,-275.56"/>
</g>
<!-- varc4 -->
<g id="node12" class="node">
<title>varc4</title>
<ellipse fill="none" stroke="black" cx="181" cy="-417.6" rx="27" ry="18"/>
<text text-anchor="middle" x="181" y="-413.9" font-family="Times,serif" font-size="14.00">c4</text>
</g>
<!-- varc4&#45;&#45;varb4 -->
<g id="edge29" class="edge">
<title>varc4&#45;&#45;varb4</title>
<path fill="none" stroke="black" d="M164.8,-403.1C149.93,-390.71 128.01,-372.44 113.15,-360.06"/>
</g>
<!-- varc4&#45;&#45;varc3 -->
<g id="edge28" class="edge">
<title>varc4&#45;&#45;varc3</title>
<path fill="none" stroke="black" d="M181,-399.3C181,-388.45 181,-374.52 181,-363.7"/>
</g>
<!-- factor26 -->
<g id="node24" class="node">
<title>factor26</title>
<ellipse fill="black" stroke="black" cx="228" cy="-345.6" rx="1.8" ry="1.8"/>
</g>
<!-- varc4&#45;&#45;factor26 -->
<g id="edge27" class="edge">
<title>varc4&#45;&#45;factor26</title>
<path fill="none" stroke="black" d="M191.8,-400.89C199,-390.38 208.64,-376.21 217,-363.6 221.04,-357.51 225.78,-350.09 227.41,-347.53"/>
</g>
</g>
</svg>
