<?xml version="1.0" encoding="UTF-8" standalone="no"?>
<!DOCTYPE svg PUBLIC "-//W3C//DTD SVG 1.1//EN"
 "http://www.w3.org/Graphics/SVG/1.1/DTD/svg11.dtd">
<!-- Generated by graphviz version 5.0.0 (20220707.2338)
 -->
<!-- Pages: 1 -->
<svg width="360pt" height="326pt"
 viewBox="0.00 0.00 360.00 325.80" xmlns="http://www.w3.org/2000/svg" xmlns:xlink="http://www.w3.org/1999/xlink">
<g id="graph0" class="graph" transform="scale(0.87845 0.87845) rotate(0) translate(4 366.88)">
<polygon fill="white" stroke="transparent" points="-4,4 -4,-366.88 405.81,-366.88 405.81,4 -4,4"/>
<!-- var6989586621679009793 -->
<g id="node1" class="node">
<title>var6989586621679009793</title>
<ellipse fill="none" stroke="black" cx="158.81" cy="-240.47" rx="27" ry="18"/>
<text text-anchor="middle" x="158.81" y="-236.77" font-family="Times,serif" font-size="14.00">a1</text>
</g>
<!-- factor0 -->
<g id="node13" class="node">
<title>factor0</title>
<ellipse fill="black" stroke="black" cx="16.4" cy="-300.09" rx="1.8" ry="1.8"/>
</g>
<!-- var6989586621679009793&#45;&#45;factor0 -->
<g id="edge1" class="edge">
<title>var6989586621679009793&#45;&#45;factor0</title>
<path fill="none" stroke="black" d="M135.93,-250.05C99.14,-265.46 29.74,-294.51 18.09,-299.39"/>
</g>
<!-- var6989586621679009794 -->
<g id="node2" class="node">
<title>var6989586621679009794</title>
<ellipse fill="none" stroke="black" cx="230.81" cy="-240.47" rx="27" ry="18"/>
<text text-anchor="middle" x="230.81" y="-236.77" font-family="Times,serif" font-size="14.00">a2</text>
</g>
<!-- var6989586621679009794&#45;&#45;var6989586621679009793 -->
<g id="edge3" class="edge">
<title>var6989586621679009794&#45;&#45;var6989586621679009793</title>
<path fill="none" stroke="black" d="M203.59,-240.47C197.86,-240.47 191.81,-240.47 186.07,-240.47"/>
</g>
<!-- factor1 -->
<g id="node14" class="node">
<title>factor1</title>
<ellipse fill="black" stroke="black" cx="105.23" cy="-326.2" rx="1.8" ry="1.8"/>
</g>
<!-- var6989586621679009794&#45;&#45;factor1 -->
<g id="edge2" class="edge">
<title>var6989586621679009794&#45;&#45;factor1</title>
<path fill="none" stroke="black" d="M211.74,-253.49C179.63,-275.41 117.23,-318 106.74,-325.16"/>
</g>
<!-- var6989586621679009795 -->
<g id="node3" class="node">
<title>var6989586621679009795</title>
<ellipse fill="none" stroke="black" cx="302.81" cy="-240.47" rx="27" ry="18"/>
<text text-anchor="middle" x="302.81" y="-236.77" font-family="Times,serif" font-size="14.00">a3</text>
</g>
<!-- var6989586621679009795&#45;&#45;var6989586621679009794 -->
<g id="edge5" class="edge">
<title>var6989586621679009795&#45;&#45;var6989586621679009794</title>
<path fill="none" stroke="black" d="M275.59,-240.47C269.86,-240.47 263.81,-240.47 258.07,-240.47"/>
</g>
<!-- factor3 -->
<g id="node15" class="node">
<title>factor3</title>
<ellipse fill="black" stroke="black" cx="208.07" cy="-345.52" rx="1.8" ry="1.8"/>
</g>
<!-- var6989586621679009795&#45;&#45;factor3 -->
<g id="edge4" class="edge">
<title>var6989586621679009795&#45;&#45;factor3</title>
<path fill="none" stroke="black" d="M288.83,-255.97C264.95,-282.45 218.02,-334.49 209.43,-344.01"/>
</g>
<!-- var6989586621679009796 -->
<g id="node4" class="node">
<title>var6989586621679009796</title>
<ellipse fill="none" stroke="black" cx="374.81" cy="-240.47" rx="27" ry="18"/>
<text text-anchor="middle" x="374.81" y="-236.77" font-family="Times,serif" font-size="14.00">a4</text>
</g>
<!-- var6989586621679009796&#45;&#45;var6989586621679009795 -->
<g id="edge7" class="edge">
<title>var6989586621679009796&#45;&#45;var6989586621679009795</title>
<path fill="none" stroke="black" d="M347.59,-240.47C341.86,-240.47 335.81,-240.47 330.07,-240.47"/>
</g>
<!-- factor5 -->
<g id="node16" class="node">
<title>factor5</title>
<ellipse fill="black" stroke="black" cx="336.01" cy="-361.08" rx="1.8" ry="1.8"/>
</g>
<!-- var6989586621679009796&#45;&#45;factor5 -->
<g id="edge6" class="edge">
<title>var6989586621679009796&#45;&#45;factor5</title>
<path fill="none" stroke="black" d="M369.09,-258.27C359.31,-288.67 340.09,-348.41 336.57,-359.34"/>
</g>
<!-- var7061644215716937729 -->
<g id="node5" class="node">
<title>var7061644215716937729</title>
<ellipse fill="none" stroke="black" cx="158.81" cy="-168.47" rx="27" ry="18"/>
<text text-anchor="middle" x="158.81" y="-164.77" font-family="Times,serif" font-size="14.00">b1</text>
</g>
<!-- var7061644215716937729&#45;&#45;var6989586621679009793 -->
<g id="edge9" class="edge">
<title>var7061644215716937729&#45;&#45;var6989586621679009793</title>
<path fill="none" stroke="black" d="M158.81,-186.64C158.81,-197.47 158.81,-211.18 158.81,-222.06"/>
</g>
<!-- factor7 -->
<g id="node17" class="node">
<title>factor7</title>
<ellipse fill="black" stroke="black" cx="1.8" cy="-183.58" rx="1.8" ry="1.8"/>
</g>
<!-- var7061644215716937729&#45;&#45;factor7 -->
<g id="edge8" class="edge">
<title>var7061644215716937729&#45;&#45;factor7</title>
<path fill="none" stroke="black" d="M131.82,-171.07C90.79,-175.02 16.13,-182.2 3.61,-183.4"/>
</g>
<!-- var7061644215716937730 -->
<g id="node6" class="node">
<title>var7061644215716937730</title>
<ellipse fill="none" stroke="black" cx="230.81" cy="-168.47" rx="27" ry="18"/>
<text text-anchor="middle" x="230.81" y="-164.77" font-family="Times,serif" font-size="14.00">b2</text>
</g>
<!-- var7061644215716937730&#45;&#45;var6989586621679009794 -->
<g id="edge12" class="edge">
<title>var7061644215716937730&#45;&#45;var6989586621679009794</title>
<path fill="none" stroke="black" d="M230.81,-186.64C230.81,-197.47 230.81,-211.18 230.81,-222.06"/>
</g>
<!-- var7061644215716937730&#45;&#45;var7061644215716937729 -->
<g id="edge11" class="edge">
<title>var7061644215716937730&#45;&#45;var7061644215716937729</title>
<path fill="none" stroke="black" d="M203.59,-168.47C197.86,-168.47 191.81,-168.47 186.07,-168.47"/>
</g>
<!-- factor9 -->
<g id="node18" class="node">
<title>factor9</title>
<ellipse fill="black" stroke="black" cx="74.28" cy="-194.08" rx="1.8" ry="1.8"/>
</g>
<!-- var7061644215716937730&#45;&#45;factor9 -->
<g id="edge10" class="edge">
<title>var7061644215716937730&#45;&#45;factor9</title>
<path fill="none" stroke="black" d="M204.26,-172.81C163.44,-179.49 88.65,-191.73 76.09,-193.78"/>
</g>
<!-- var7061644215716937731 -->
<g id="node7" class="node">
<title>var7061644215716937731</title>
<ellipse fill="none" stroke="black" cx="302.81" cy="-168.47" rx="27" ry="18"/>
<text text-anchor="middle" x="302.81" y="-164.77" font-family="Times,serif" font-size="14.00">b3</text>
</g>
<!-- var7061644215716937731&#45;&#45;var6989586621679009795 -->
<g id="edge15" class="edge">
<title>var7061644215716937731&#45;&#45;var6989586621679009795</title>
<path fill="none" stroke="black" d="M302.81,-186.64C302.81,-197.47 302.81,-211.18 302.81,-222.06"/>
</g>
<!-- var7061644215716937731&#45;&#45;var7061644215716937730 -->
<g id="edge14" class="edge">
<title>var7061644215716937731&#45;&#45;var7061644215716937730</title>
<path fill="none" stroke="black" d="M275.59,-168.47C269.86,-168.47 263.81,-168.47 258.07,-168.47"/>
</g>
<!-- factor12 -->
<g id="node19" class="node">
<title>factor12</title>
<ellipse fill="black" stroke="black" cx="164.72" cy="-154.4" rx="1.8" ry="1.8"/>
</g>
<!-- var7061644215716937731&#45;&#45;factor12 -->
<g id="edge13" class="edge">
<title>var7061644215716937731&#45;&#45;factor12</title>
<path fill="none" stroke="black" d="M275.86,-165.72C239.75,-162.04 178.82,-155.84 166.81,-154.61"/>
</g>
<!-- var7061644215716937732 -->
<g id="node8" class="node">
<title>var7061644215716937732</title>
<ellipse fill="none" stroke="black" cx="374.81" cy="-168.47" rx="27" ry="18"/>
<text text-anchor="middle" x="374.81" y="-164.77" font-family="Times,serif" font-size="14.00">b4</text>
</g>
<!-- var7061644215716937732&#45;&#45;var6989586621679009796 -->
<g id="edge18" class="edge">
<title>var7061644215716937732&#45;&#45;var6989586621679009796</title>
<path fill="none" stroke="black" d="M374.81,-186.64C374.81,-197.47 374.81,-211.18 374.81,-222.06"/>
</g>
<!-- var7061644215716937732&#45;&#45;var7061644215716937731 -->
<g id="edge17" class="edge">
<title>var7061644215716937732&#45;&#45;var7061644215716937731</title>
<path fill="none" stroke="black" d="M347.59,-168.47C341.86,-168.47 335.81,-168.47 330.07,-168.47"/>
</g>
<!-- factor15 -->
<g id="node20" class="node">
<title>factor15</title>
<ellipse fill="black" stroke="black" cx="337.41" cy="-277.88" rx="1.8" ry="1.8"/>
</g>
<!-- var7061644215716937732&#45;&#45;factor15 -->
<g id="edge16" class="edge">
<title>var7061644215716937732&#45;&#45;factor15</title>
<path fill="none" stroke="black" d="M368.8,-186.05C359.31,-213.84 341.54,-265.82 338.03,-276.09"/>
</g>
<!-- var7133701809754865665 -->
<g id="node9" class="node">
<title>var7133701809754865665</title>
<ellipse fill="none" stroke="black" cx="158.81" cy="-96.47" rx="27" ry="18"/>
<text text-anchor="middle" x="158.81" y="-92.77" font-family="Times,serif" font-size="14.00">c1</text>
</g>
<!-- var7133701809754865665&#45;&#45;var7061644215716937729 -->
<g id="edge20" class="edge">
<title>var7133701809754865665&#45;&#45;var7061644215716937729</title>
<path fill="none" stroke="black" d="M158.81,-114.64C158.81,-125.47 158.81,-139.18 158.81,-150.06"/>
</g>
<!-- factor18 -->
<g id="node21" class="node">
<title>factor18</title>
<ellipse fill="black" stroke="black" cx="9.5" cy="-64.55" rx="1.8" ry="1.8"/>
</g>
<!-- var7133701809754865665&#45;&#45;factor18 -->
<g id="edge19" class="edge">
<title>var7133701809754865665&#45;&#45;factor18</title>
<path fill="none" stroke="black" d="M132.8,-90.91C94.03,-82.62 24.26,-67.7 11.52,-64.98"/>
</g>
<!-- var7133701809754865666 -->
<g id="node10" class="node">
<title>var7133701809754865666</title>
<ellipse fill="none" stroke="black" cx="230.81" cy="-96.47" rx="27" ry="18"/>
<text text-anchor="middle" x="230.81" y="-92.77" font-family="Times,serif" font-size="14.00">c2</text>
</g>
<!-- var7133701809754865666&#45;&#45;var7061644215716937730 -->
<g id="edge23" class="edge">
<title>var7133701809754865666&#45;&#45;var7061644215716937730</title>
<path fill="none" stroke="black" d="M230.81,-114.64C230.81,-125.47 230.81,-139.18 230.81,-150.06"/>
</g>
<!-- var7133701809754865666&#45;&#45;var7133701809754865665 -->
<g id="edge22" class="edge">
<title>var7133701809754865666&#45;&#45;var7133701809754865665</title>
<path fill="none" stroke="black" d="M203.59,-96.47C197.86,-96.47 191.81,-96.47 186.07,-96.47"/>
</g>
<!-- factor20 -->
<g id="node22" class="node">
<title>factor20</title>
<ellipse fill="black" stroke="black" cx="94.35" cy="-35.1" rx="1.8" ry="1.8"/>
</g>
<!-- var7133701809754865666&#45;&#45;factor20 -->
<g id="edge21" class="edge">
<title>var7133701809754865666&#45;&#45;factor20</title>
<path fill="none" stroke="black" d="M208.28,-86.34C173.15,-70.54 108.12,-41.29 96.24,-35.95"/>
</g>
<!-- var7133701809754865667 -->
<g id="node11" class="node">
<title>var7133701809754865667</title>
<ellipse fill="none" stroke="black" cx="302.81" cy="-96.47" rx="27" ry="18"/>
<text text-anchor="middle" x="302.81" y="-92.77" font-family="Times,serif" font-size="14.00">c3</text>
</g>
<!-- var7133701809754865667&#45;&#45;var7061644215716937731 -->
<g id="edge26" class="edge">
<title>var7133701809754865667&#45;&#45;var7061644215716937731</title>
<path fill="none" stroke="black" d="M302.81,-114.64C302.81,-125.47 302.81,-139.18 302.81,-150.06"/>
</g>
<!-- var7133701809754865667&#45;&#45;var7133701809754865666 -->
<g id="edge25" class="edge">
<title>var7133701809754865667&#45;&#45;var7133701809754865666</title>
<path fill="none" stroke="black" d="M275.59,-96.47C269.86,-96.47 263.81,-96.47 258.07,-96.47"/>
</g>
<!-- factor23 -->
<g id="node23" class="node">
<title>factor23</title>
<ellipse fill="black" stroke="black" cx="207.16" cy="-4.64" rx="1.8" ry="1.8"/>
</g>
<!-- var7133701809754865667&#45;&#45;factor23 -->
<g id="edge24" class="edge">
<title>var7133701809754865667&#45;&#45;factor23</title>
<path fill="none" stroke="black" d="M287.02,-81.31C262.4,-57.67 216.82,-13.91 208.49,-5.91"/>
</g>
<!-- var7133701809754865668 -->
<g id="node12" class="node">
<title>var7133701809754865668</title>
<ellipse fill="none" stroke="black" cx="374.81" cy="-96.47" rx="27" ry="18"/>
<text text-anchor="middle" x="374.81" y="-92.77" font-family="Times,serif" font-size="14.00">c4</text>
</g>
<!-- var7133701809754865668&#45;&#45;var7061644215716937732 -->
<g id="edge29" class="edge">
<title>var7133701809754865668&#45;&#45;var7061644215716937732</title>
<path fill="none" stroke="black" d="M374.81,-114.64C374.81,-125.47 374.81,-139.18 374.81,-150.06"/>
</g>
<!-- var7133701809754865668&#45;&#45;var7133701809754865667 -->
<g id="edge28" class="edge">
<title>var7133701809754865668&#45;&#45;var7133701809754865667</title>
<path fill="none" stroke="black" d="M347.59,-96.47C341.86,-96.47 335.81,-96.47 330.07,-96.47"/>
</g>
<!-- factor26 -->
<g id="node24" class="node">
<title>factor26</title>
<ellipse fill="black" stroke="black" cx="337.99" cy="-1.8" rx="1.8" ry="1.8"/>
</g>
<!-- var7133701809754865668&#45;&#45;factor26 -->
<g id="edge27" class="edge">
<title>var7133701809754865668&#45;&#45;factor26</title>
<path fill="none" stroke="black" d="M367.89,-78.66C358.39,-54.24 342.09,-12.35 338.64,-3.48"/>
</g>
</g>
</svg>
