<?xml version="1.0" encoding="UTF-8" standalone="no"?>
<!DOCTYPE svg PUBLIC "-//W3C//DTD SVG 1.1//EN"
 "http://www.w3.org/Graphics/SVG/1.1/DTD/svg11.dtd">
<!-- Generated by graphviz version 5.0.0 (20220707.2338)
 -->
<!-- Title: G Pages: 1 -->
<svg width="596pt" height="260pt"
 viewBox="0.00 0.00 595.84 260.00" xmlns="http://www.w3.org/2000/svg" xmlns:xlink="http://www.w3.org/1999/xlink">
<g id="graph0" class="graph" transform="scale(1 1) rotate(0) translate(4 256)">
<title>G</title>
<polygon fill="white" stroke="transparent" points="-4,4 -4,-256 591.84,-256 591.84,4 -4,4"/>
<!-- 0 -->
<g id="node1" class="node">
<title>0</title>
<ellipse fill="none" stroke="black" cx="275.79" cy="-234" rx="73.39" ry="18"/>
<text text-anchor="middle" x="275.79" y="-230.3" font-family="Times,serif" font-size="14.00">a2, c2, b3, a3</text>
</g>
<!-- 1 -->
<g id="node2" class="node">
<title>1</title>
<ellipse fill="none" stroke="black" cx="181.79" cy="-162" rx="94.48" ry="18"/>
<text text-anchor="middle" x="181.79" y="-158.3" font-family="Times,serif" font-size="14.00">b2, b1 : a2, b3, c2</text>
</g>
<!-- 0&#45;&gt;1 -->
<g id="edge1" class="edge">
<title>0&#45;&gt;1</title>
<path fill="none" stroke="black" d="M253.99,-216.76C241.6,-207.53 225.88,-195.83 212.28,-185.7"/>
<polygon fill="black" stroke="black" points="214.24,-182.8 204.13,-179.63 210.06,-188.41 214.24,-182.8"/>
</g>
<!-- 4 -->
<g id="node5" class="node">
<title>4</title>
<ellipse fill="none" stroke="black" cx="370.79" cy="-162" rx="76.89" ry="18"/>
<text text-anchor="middle" x="370.79" y="-158.3" font-family="Times,serif" font-size="14.00">b4 : a3, b3, c2</text>
</g>
<!-- 0&#45;&gt;4 -->
<g id="edge4" class="edge">
<title>0&#45;&gt;4</title>
<path fill="none" stroke="black" d="M297.83,-216.76C310.45,-207.47 326.47,-195.66 340.29,-185.48"/>
<polygon fill="black" stroke="black" points="342.58,-188.14 348.55,-179.39 338.42,-182.5 342.58,-188.14"/>
</g>
<!-- 2 -->
<g id="node3" class="node">
<title>2</title>
<ellipse fill="none" stroke="black" cx="59.79" cy="-90" rx="59.59" ry="18"/>
<text text-anchor="middle" x="59.79" y="-86.3" font-family="Times,serif" font-size="14.00">a1 : a2, b1</text>
</g>
<!-- 1&#45;&gt;2 -->
<g id="edge2" class="edge">
<title>1&#45;&gt;2</title>
<path fill="none" stroke="black" d="M153.5,-144.76C136.08,-134.77 113.6,-121.87 95.03,-111.22"/>
<polygon fill="black" stroke="black" points="96.68,-108.13 86.27,-106.19 93.2,-114.2 96.68,-108.13"/>
</g>
<!-- 3 -->
<g id="node4" class="node">
<title>3</title>
<ellipse fill="none" stroke="black" cx="195.79" cy="-90" rx="58.49" ry="18"/>
<text text-anchor="middle" x="195.79" y="-86.3" font-family="Times,serif" font-size="14.00">c1 : b1, c2</text>
</g>
<!-- 1&#45;&gt;3 -->
<g id="edge3" class="edge">
<title>1&#45;&gt;3</title>
<path fill="none" stroke="black" d="M185.26,-143.7C186.8,-135.98 188.65,-126.71 190.37,-118.11"/>
<polygon fill="black" stroke="black" points="193.84,-118.6 192.37,-108.1 186.98,-117.22 193.84,-118.6"/>
</g>
<!-- 5 -->
<g id="node6" class="node">
<title>5</title>
<ellipse fill="none" stroke="black" cx="357.79" cy="-90" rx="59.59" ry="18"/>
<text text-anchor="middle" x="357.79" y="-86.3" font-family="Times,serif" font-size="14.00">a4 : a3, b4</text>
</g>
<!-- 4&#45;&gt;5 -->
<g id="edge5" class="edge">
<title>4&#45;&gt;5</title>
<path fill="none" stroke="black" d="M367.58,-143.7C366.15,-135.98 364.43,-126.71 362.83,-118.11"/>
<polygon fill="black" stroke="black" points="366.24,-117.3 360.97,-108.1 359.36,-118.58 366.24,-117.3"/>
</g>
<!-- 6 -->
<g id="node7" class="node">
<title>6</title>
<ellipse fill="none" stroke="black" cx="511.79" cy="-90" rx="76.09" ry="18"/>
<text text-anchor="middle" x="511.79" y="-86.3" font-family="Times,serif" font-size="14.00">c4 : b3, b4, c2</text>
</g>
<!-- 4&#45;&gt;6 -->
<g id="edge6" class="edge">
<title>4&#45;&gt;6</title>
<path fill="none" stroke="black" d="M402.09,-145.46C422.53,-135.31 449.43,-121.96 471.47,-111.02"/>
<polygon fill="black" stroke="black" points="473.19,-114.07 480.59,-106.49 470.08,-107.8 473.19,-114.07"/>
</g>
<!-- 7 -->
<g id="node8" class="node">
<title>7</title>
<ellipse fill="none" stroke="black" cx="511.79" cy="-18" rx="75.29" ry="18"/>
<text text-anchor="middle" x="511.79" y="-14.3" font-family="Times,serif" font-size="14.00">c3 : b3, c2, c4</text>
</g>
<!-- 6&#45;&gt;7 -->
<g id="edge7" class="edge">
<title>6&#45;&gt;7</title>
<path fill="none" stroke="black" d="M511.79,-71.7C511.79,-63.98 511.79,-54.71 511.79,-46.11"/>
<polygon fill="black" stroke="black" points="515.29,-46.1 511.79,-36.1 508.29,-46.1 515.29,-46.1"/>
</g>
</g>
</svg>
