<?xml version="1.0" encoding="UTF-8" standalone="no"?>
<!DOCTYPE svg PUBLIC "-//W3C//DTD SVG 1.1//EN"
 "http://www.w3.org/Graphics/SVG/1.1/DTD/svg11.dtd">
<!-- Generated by graphviz version 3.0.0 (20220315.2325)
 -->
<!-- Pages: 1 -->
<svg width="248pt" height="59pt"
 viewBox="0.00 0.00 247.93 59.12" xmlns="http://www.w3.org/2000/svg" xmlns:xlink="http://www.w3.org/1999/xlink">
<g id="graph0" class="graph" transform="scale(1 1) rotate(0) translate(4 55.12)">
<polygon fill="white" stroke="transparent" points="-4,4 -4,-55.12 243.93,-55.12 243.93,4 -4,4"/>
<!-- varx1 -->
<g id="node1" class="node">
<title>varx1</title>
<ellipse fill="none" stroke="black" cx="68.93" cy="-18" rx="27" ry="18"/>
<text text-anchor="middle" x="68.93" y="-14.3" font-family="Times,serif" font-size="14.00">x1</text>
</g>
<!-- varx2 -->
<g id="node2" class="node">
<title>varx2</title>
<ellipse fill="none" stroke="black" cx="140.93" cy="-18" rx="27" ry="18"/>
<text text-anchor="middle" x="140.93" y="-14.3" font-family="Times,serif" font-size="14.00">x2</text>
</g>
<!-- varx1&#45;&#45;varx2 -->
<g id="edge2" class="edge">
<title>varx1&#45;&#45;varx2</title>
<path fill="none" stroke="black" d="M96.15,-18C101.88,-18 107.93,-18 113.67,-18"/>
</g>
<!-- factor0 -->
<g id="node4" class="node">
<title>factor0</title>
<ellipse fill="black" stroke="black" cx="1.8" cy="-49.32" rx="1.8" ry="1.8"/>
</g>
<!-- varx1&#45;&#45;factor0 -->
<g id="edge1" class="edge">
<title>varx1&#45;&#45;factor0</title>
<path fill="none" stroke="black" d="M46.58,-28.43C30.1,-36.12 9.55,-45.7 3.53,-48.51"/>
</g>
<!-- varx3 -->
<g id="node3" class="node">
<title>varx3</title>
<ellipse fill="none" stroke="black" cx="212.93" cy="-18" rx="27" ry="18"/>
<text text-anchor="middle" x="212.93" y="-14.3" font-family="Times,serif" font-size="14.00">x3</text>
</g>
<!-- varx2&#45;&#45;varx3 -->
<g id="edge3" class="edge">
<title>varx2&#45;&#45;varx3</title>
<path fill="none" stroke="black" d="M168.15,-18C173.88,-18 179.93,-18 185.67,-18"/>
</g>
</g>
</svg>
