<?xml version="1.0" encoding="UTF-8" standalone="no"?>
<!DOCTYPE svg PUBLIC "-//W3C//DTD SVG 1.1//EN"
 "http://www.w3.org/Graphics/SVG/1.1/DTD/svg11.dtd">
<!-- Generated by graphviz version 5.0.0 (20220707.2338)
 -->
<!-- Pages: 1 -->
<svg width="210pt" height="116pt"
 viewBox="0.00 0.00 210.01 116.00" xmlns="http://www.w3.org/2000/svg" xmlns:xlink="http://www.w3.org/1999/xlink">
<g id="graph0" class="graph" transform="scale(1 1) rotate(0) translate(4 112)">
<polygon fill="white" stroke="transparent" points="-4,4 -4,-112 206.01,-112 206.01,4 -4,4"/>
<!-- var6989586621679009793 -->
<g id="node1" class="node">
<title>var6989586621679009793</title>
<ellipse fill="none" stroke="black" cx="31.01" cy="-90" rx="27" ry="18"/>
<text text-anchor="middle" x="31.01" y="-86.3" font-family="Times,serif" font-size="14.00">a1</text>
</g>
<!-- var6989586621679009794 -->
<g id="node2" class="node">
<title>var6989586621679009794</title>
<ellipse fill="none" stroke="black" cx="103.01" cy="-90" rx="27" ry="18"/>
<text text-anchor="middle" x="103.01" y="-86.3" font-family="Times,serif" font-size="14.00">a2</text>
</g>
<!-- var6989586621679009794&#45;&#45;var6989586621679009793 -->
<g id="edge2" class="edge">
<title>var6989586621679009794&#45;&#45;var6989586621679009793</title>
<path fill="none" stroke="black" d="M75.79,-90C70.06,-90 64.01,-90 58.27,-90"/>
</g>
<!-- factor0 -->
<g id="node5" class="node">
<title>factor0</title>
<ellipse fill="black" stroke="black" cx="1.8" cy="-46.81" rx="1.8" ry="1.8"/>
</g>
<!-- var6989586621679009794&#45;&#45;factor0 -->
<g id="edge1" class="edge">
<title>var6989586621679009794&#45;&#45;factor0</title>
<path fill="none" stroke="black" d="M80.05,-80.2C53.92,-69.05 13.61,-51.85 3.94,-47.72"/>
</g>
<!-- var6989586621679009795 -->
<g id="node3" class="node">
<title>var6989586621679009795</title>
<ellipse fill="none" stroke="black" cx="175.01" cy="-90" rx="27" ry="18"/>
<text text-anchor="middle" x="175.01" y="-86.3" font-family="Times,serif" font-size="14.00">a3</text>
</g>
<!-- var6989586621679009795&#45;&#45;var6989586621679009794 -->
<g id="edge3" class="edge">
<title>var6989586621679009795&#45;&#45;var6989586621679009794</title>
<path fill="none" stroke="black" d="M147.79,-90C142.06,-90 136.01,-90 130.27,-90"/>
</g>
<!-- var7061644215716937730 -->
<g id="node4" class="node">
<title>var7061644215716937730</title>
<ellipse fill="none" stroke="black" cx="103.01" cy="-18" rx="27" ry="18"/>
<text text-anchor="middle" x="103.01" y="-14.3" font-family="Times,serif" font-size="14.00">b2</text>
</g>
<!-- var7061644215716937730&#45;&#45;var6989586621679009794 -->
<g id="edge4" class="edge">
<title>var7061644215716937730&#45;&#45;var6989586621679009794</title>
<path fill="none" stroke="black" d="M103.01,-36.17C103.01,-47 103.01,-60.71 103.01,-71.59"/>
</g>
</g>
</svg>
