<?xml version="1.0" encoding="UTF-8" standalone="no"?>
<!DOCTYPE svg PUBLIC "-//W3C//DTD SVG 1.1//EN"
 "http://www.w3.org/Graphics/SVG/1.1/DTD/svg11.dtd">
<!-- Generated by graphviz version 3.0.0 (20220315.2325)
 -->
<!-- Pages: 1 -->
<svg width="206pt" height="188pt"
 viewBox="0.00 0.00 206.00 188.00" xmlns="http://www.w3.org/2000/svg" xmlns:xlink="http://www.w3.org/1999/xlink">
<g id="graph0" class="graph" transform="scale(1 1) rotate(0) translate(4 184)">
<polygon fill="white" stroke="transparent" points="-4,4 -4,-184 202,-184 202,4 -4,4"/>
<!-- vara2 -->
<g id="node1" class="node">
<title>vara2</title>
<ellipse fill="none" stroke="black" cx="99" cy="-162" rx="27" ry="18"/>
<text text-anchor="middle" x="99" y="-158.3" font-family="Times,serif" font-size="14.00">a2</text>
</g>
<!-- varb1 -->
<g id="node2" class="node">
<title>varb1</title>
<ellipse fill="none" stroke="black" cx="27" cy="-90" rx="27" ry="18"/>
<text text-anchor="middle" x="27" y="-86.3" font-family="Times,serif" font-size="14.00">b1</text>
</g>
<!-- varb2 -->
<g id="node3" class="node">
<title>varb2</title>
<ellipse fill="none" stroke="black" cx="99" cy="-90" rx="27" ry="18"/>
<text text-anchor="middle" x="99" y="-86.3" font-family="Times,serif" font-size="14.00">b2</text>
</g>
<!-- varb2&#45;&#45;vara2 -->
<g id="edge3" class="edge">
<title>varb2&#45;&#45;vara2</title>
<path fill="none" stroke="black" d="M99,-108.17C99,-119 99,-132.71 99,-143.59"/>
</g>
<!-- varb2&#45;&#45;varb1 -->
<g id="edge2" class="edge">
<title>varb2&#45;&#45;varb1</title>
<path fill="none" stroke="black" d="M71.78,-90C66.05,-90 59.99,-90 54.26,-90"/>
</g>
<!-- factor0 -->
<g id="node6" class="node">
<title>factor0</title>
<ellipse fill="black" stroke="black" cx="10.95" cy="-160.19" rx="1.8" ry="1.8"/>
</g>
<!-- varb2&#45;&#45;factor0 -->
<g id="edge1" class="edge">
<title>varb2&#45;&#45;factor0</title>
<path fill="none" stroke="black" d="M81.6,-103.87C58.75,-122.08 20.56,-152.53 12.48,-158.97"/>
</g>
<!-- varb3 -->
<g id="node4" class="node">
<title>varb3</title>
<ellipse fill="none" stroke="black" cx="171" cy="-90" rx="27" ry="18"/>
<text text-anchor="middle" x="171" y="-86.3" font-family="Times,serif" font-size="14.00">b3</text>
</g>
<!-- varb3&#45;&#45;varb2 -->
<g id="edge4" class="edge">
<title>varb3&#45;&#45;varb2</title>
<path fill="none" stroke="black" d="M143.78,-90C138.05,-90 131.99,-90 126.26,-90"/>
</g>
<!-- varc2 -->
<g id="node5" class="node">
<title>varc2</title>
<ellipse fill="none" stroke="black" cx="99" cy="-18" rx="27" ry="18"/>
<text text-anchor="middle" x="99" y="-14.3" font-family="Times,serif" font-size="14.00">c2</text>
</g>
<!-- varc2&#45;&#45;varb2 -->
<g id="edge5" class="edge">
<title>varc2&#45;&#45;varb2</title>
<path fill="none" stroke="black" d="M99,-36.17C99,-47 99,-60.71 99,-71.59"/>
</g>
</g>
</svg>
