<?xml version="1.0" encoding="UTF-8" standalone="no"?>
<!DOCTYPE svg PUBLIC "-//W3C//DTD SVG 1.1//EN"
 "http://www.w3.org/Graphics/SVG/1.1/DTD/svg11.dtd">
<!-- Generated by graphviz version 5.0.0 (20220707.2338)
 -->
<!-- Pages: 1 -->
<svg width="186pt" height="116pt"
 viewBox="0.00 0.00 185.54 116.00" xmlns="http://www.w3.org/2000/svg" xmlns:xlink="http://www.w3.org/1999/xlink">
<g id="graph0" class="graph" transform="scale(1 1) rotate(0) translate(4 112)">
<polygon fill="white" stroke="transparent" points="-4,4 -4,-112 181.54,-112 181.54,4 -4,4"/>
<!-- var6989586621679009793 -->
<g id="node1" class="node">
<title>var6989586621679009793</title>
<ellipse fill="none" stroke="black" cx="78.54" cy="-90" rx="27" ry="18"/>
<text text-anchor="middle" x="78.54" y="-86.3" font-family="Times,serif" font-size="14.00">a1</text>
</g>
<!-- factor0 -->
<g id="node4" class="node">
<title>factor0</title>
<ellipse fill="black" stroke="black" cx="1.8" cy="-70.82" rx="1.8" ry="1.8"/>
</g>
<!-- var6989586621679009793&#45;&#45;factor0 -->
<g id="edge1" class="edge">
<title>var6989586621679009793&#45;&#45;factor0</title>
<path fill="none" stroke="black" d="M52.99,-83.61C34.15,-78.91 10.66,-73.03 3.78,-71.31"/>
</g>
<!-- var6989586621679009794 -->
<g id="node2" class="node">
<title>var6989586621679009794</title>
<ellipse fill="none" stroke="black" cx="150.54" cy="-90" rx="27" ry="18"/>
<text text-anchor="middle" x="150.54" y="-86.3" font-family="Times,serif" font-size="14.00">a2</text>
</g>
<!-- var6989586621679009794&#45;&#45;var6989586621679009793 -->
<g id="edge2" class="edge">
<title>var6989586621679009794&#45;&#45;var6989586621679009793</title>
<path fill="none" stroke="black" d="M123.32,-90C117.59,-90 111.54,-90 105.8,-90"/>
</g>
<!-- var7061644215716937729 -->
<g id="node3" class="node">
<title>var7061644215716937729</title>
<ellipse fill="none" stroke="black" cx="78.54" cy="-18" rx="27" ry="18"/>
<text text-anchor="middle" x="78.54" y="-14.3" font-family="Times,serif" font-size="14.00">b1</text>
</g>
<!-- var7061644215716937729&#45;&#45;var6989586621679009793 -->
<g id="edge3" class="edge">
<title>var7061644215716937729&#45;&#45;var6989586621679009793</title>
<path fill="none" stroke="black" d="M78.54,-36.17C78.54,-47 78.54,-60.71 78.54,-71.59"/>
</g>
</g>
</svg>
