<?xml version="1.0" encoding="UTF-8" standalone="no"?>
<!DOCTYPE svg PUBLIC "-//W3C//DTD SVG 1.1//EN"
 "http://www.w3.org/Graphics/SVG/1.1/DTD/svg11.dtd">
<!-- Generated by graphviz version 3.0.0 (20220315.2325)
 -->
<!-- Pages: 1 -->
<svg width="206pt" height="149pt"
 viewBox="0.00 0.00 206.00 149.22" xmlns="http://www.w3.org/2000/svg" xmlns:xlink="http://www.w3.org/1999/xlink">
<g id="graph0" class="graph" transform="scale(1 1) rotate(0) translate(4 145.22)">
<polygon fill="white" stroke="transparent" points="-4,4 -4,-145.22 202,-145.22 202,4 -4,4"/>
<!-- vara1 -->
<g id="node1" class="node">
<title>vara1</title>
<ellipse fill="none" stroke="black" cx="27" cy="-90" rx="27" ry="18"/>
<text text-anchor="middle" x="27" y="-86.3" font-family="Times,serif" font-size="14.00">a1</text>
</g>
<!-- vara2 -->
<g id="node2" class="node">
<title>vara2</title>
<ellipse fill="none" stroke="black" cx="99" cy="-90" rx="27" ry="18"/>
<text text-anchor="middle" x="99" y="-86.3" font-family="Times,serif" font-size="14.00">a2</text>
</g>
<!-- vara2&#45;&#45;vara1 -->
<g id="edge2" class="edge">
<title>vara2&#45;&#45;vara1</title>
<path fill="none" stroke="black" d="M71.78,-90C66.05,-90 59.99,-90 54.26,-90"/>
</g>
<!-- factor0 -->
<g id="node5" class="node">
<title>factor0</title>
<ellipse fill="black" stroke="black" cx="10.64" cy="-139.42" rx="1.8" ry="1.8"/>
</g>
<!-- vara2&#45;&#45;factor0 -->
<g id="edge1" class="edge">
<title>vara2&#45;&#45;factor0</title>
<path fill="none" stroke="black" d="M78.06,-101.71C55.2,-114.5 20.73,-133.78 12.47,-138.4"/>
</g>
<!-- vara3 -->
<g id="node3" class="node">
<title>vara3</title>
<ellipse fill="none" stroke="black" cx="171" cy="-90" rx="27" ry="18"/>
<text text-anchor="middle" x="171" y="-86.3" font-family="Times,serif" font-size="14.00">a3</text>
</g>
<!-- vara3&#45;&#45;vara2 -->
<g id="edge3" class="edge">
<title>vara3&#45;&#45;vara2</title>
<path fill="none" stroke="black" d="M143.78,-90C138.05,-90 131.99,-90 126.26,-90"/>
</g>
<!-- varb2 -->
<g id="node4" class="node">
<title>varb2</title>
<ellipse fill="none" stroke="black" cx="99" cy="-18" rx="27" ry="18"/>
<text text-anchor="middle" x="99" y="-14.3" font-family="Times,serif" font-size="14.00">b2</text>
</g>
<!-- varb2&#45;&#45;vara2 -->
<g id="edge4" class="edge">
<title>varb2&#45;&#45;vara2</title>
<path fill="none" stroke="black" d="M99,-36.17C99,-47 99,-60.71 99,-71.59"/>
</g>
</g>
</svg>
