<?xml version="1.0" encoding="UTF-8" standalone="no"?>
<!DOCTYPE svg PUBLIC "-//W3C//DTD SVG 1.1//EN"
 "http://www.w3.org/Graphics/SVG/1.1/DTD/svg11.dtd">
<!-- Generated by graphviz version 3.0.0 (20220315.2325)
 -->
<!-- Pages: 1 -->
<svg width="360pt" height="302pt"
 viewBox="0.00 0.00 360.00 301.82" xmlns="http://www.w3.org/2000/svg" xmlns:xlink="http://www.w3.org/1999/xlink">
<g id="graph0" class="graph" transform="scale(0.909091 0.909091) rotate(0) translate(4 328)">
<polygon fill="white" stroke="transparent" points="-4,4 -4,-328 392,-328 392,4 -4,4"/>
<!-- varx0 -->
<g id="node1" class="node">
<title>varx0</title>
<ellipse fill="none" stroke="black" cx="27" cy="-162" rx="27" ry="18"/>
<text text-anchor="middle" x="27" y="-158.3" font-family="Times,serif" font-size="14.00">x0</text>
</g>
<!-- varx1 -->
<g id="node2" class="node">
<title>varx1</title>
<ellipse fill="none" stroke="black" cx="55" cy="-90" rx="27" ry="18"/>
<text text-anchor="middle" x="55" y="-86.3" font-family="Times,serif" font-size="14.00">x1</text>
</g>
<!-- varx0&#45;&gt;varx1 -->
<g id="edge14" class="edge">
<title>varx0&#45;&gt;varx1</title>
<path fill="none" stroke="black" d="M33.64,-144.41C36.91,-136.22 40.94,-126.14 44.62,-116.95"/>
<polygon fill="black" stroke="black" points="47.95,-118.05 48.41,-107.47 41.45,-115.45 47.95,-118.05"/>
</g>
<!-- varx2 -->
<g id="node3" class="node">
<title>varx2</title>
<ellipse fill="none" stroke="black" cx="87" cy="-234" rx="27" ry="18"/>
<text text-anchor="middle" x="87" y="-230.3" font-family="Times,serif" font-size="14.00">x2</text>
</g>
<!-- varx2&#45;&gt;varx0 -->
<g id="edge13" class="edge">
<title>varx2&#45;&gt;varx0</title>
<path fill="none" stroke="black" d="M73.98,-217.81C65.96,-208.45 55.53,-196.28 46.53,-185.79"/>
<polygon fill="black" stroke="black" points="49.16,-183.47 39.99,-178.16 43.84,-188.03 49.16,-183.47"/>
</g>
<!-- varx2&#45;&gt;varx1 -->
<g id="edge15" class="edge">
<title>varx2&#45;&gt;varx1</title>
<path fill="none" stroke="black" d="M83.2,-216.15C77.72,-191.81 67.52,-146.57 61.01,-117.67"/>
<polygon fill="black" stroke="black" points="64.4,-116.81 58.79,-107.82 57.58,-118.35 64.4,-116.81"/>
</g>
<!-- varx3 -->
<g id="node4" class="node">
<title>varx3</title>
<ellipse fill="none" stroke="black" cx="137" cy="-162" rx="27" ry="18"/>
<text text-anchor="middle" x="137" y="-158.3" font-family="Times,serif" font-size="14.00">x3</text>
</g>
<!-- varx2&#45;&gt;varx3 -->
<g id="edge7" class="edge">
<title>varx2&#45;&gt;varx3</title>
<path fill="none" stroke="black" d="M98.1,-217.46C104.51,-208.49 112.7,-197.02 119.92,-186.92"/>
<polygon fill="black" stroke="black" points="122.97,-188.66 125.93,-178.49 117.27,-184.59 122.97,-188.66"/>
</g>
<!-- varx4 -->
<g id="node5" class="node">
<title>varx4</title>
<ellipse fill="none" stroke="black" cx="175" cy="-90" rx="27" ry="18"/>
<text text-anchor="middle" x="175" y="-86.3" font-family="Times,serif" font-size="14.00">x4</text>
</g>
<!-- varx3&#45;&gt;varx4 -->
<g id="edge9" class="edge">
<title>varx3&#45;&gt;varx4</title>
<path fill="none" stroke="black" d="M145.81,-144.76C150.42,-136.28 156.16,-125.71 161.32,-116.2"/>
<polygon fill="black" stroke="black" points="164.54,-117.61 166.23,-107.15 158.39,-114.27 164.54,-117.61"/>
</g>
<!-- varx5 -->
<g id="node6" class="node">
<title>varx5</title>
<ellipse fill="none" stroke="black" cx="202" cy="-18" rx="27" ry="18"/>
<text text-anchor="middle" x="202" y="-14.3" font-family="Times,serif" font-size="14.00">x5</text>
</g>
<!-- varx4&#45;&gt;varx5 -->
<g id="edge11" class="edge">
<title>varx4&#45;&gt;varx5</title>
<path fill="none" stroke="black" d="M181.4,-72.41C184.51,-64.34 188.33,-54.43 191.83,-45.35"/>
<polygon fill="black" stroke="black" points="195.13,-46.55 195.46,-35.96 188.6,-44.03 195.13,-46.55"/>
</g>
<!-- varx6 -->
<g id="node7" class="node">
<title>varx6</title>
<ellipse fill="none" stroke="black" cx="230" cy="-306" rx="27" ry="18"/>
<text text-anchor="middle" x="230" y="-302.3" font-family="Times,serif" font-size="14.00">x6</text>
</g>
<!-- varx6&#45;&gt;varx2 -->
<g id="edge6" class="edge">
<title>varx6&#45;&gt;varx2</title>
<path fill="none" stroke="black" d="M208.9,-294.67C184.71,-282.83 144.88,-263.33 117.36,-249.86"/>
<polygon fill="black" stroke="black" points="118.71,-246.62 108.19,-245.37 115.63,-252.91 118.71,-246.62"/>
</g>
<!-- varx6&#45;&gt;varx3 -->
<g id="edge8" class="edge">
<title>varx6&#45;&gt;varx3</title>
<path fill="none" stroke="black" d="M213.96,-291.37C202.84,-281.31 188.25,-266.86 178,-252 164.47,-232.39 153.47,-207.59 146.29,-189.16"/>
<polygon fill="black" stroke="black" points="149.5,-187.76 142.69,-179.65 142.95,-190.24 149.5,-187.76"/>
</g>
<!-- varx6&#45;&gt;varx4 -->
<g id="edge10" class="edge">
<title>varx6&#45;&gt;varx4</title>
<path fill="none" stroke="black" d="M225.42,-287.82C222.67,-277.46 219.11,-263.98 216,-252 203.77,-204.84 189.83,-149.83 181.76,-117.85"/>
<polygon fill="black" stroke="black" points="185.1,-116.77 179.26,-107.93 178.31,-118.49 185.1,-116.77"/>
</g>
<!-- varx6&#45;&gt;varx5 -->
<g id="edge12" class="edge">
<title>varx6&#45;&gt;varx5</title>
<path fill="none" stroke="black" d="M229.12,-287.99C227.02,-249.45 221.1,-152.54 211,-72 209.94,-63.54 208.49,-54.36 207.06,-46.06"/>
<polygon fill="black" stroke="black" points="210.49,-45.36 205.3,-36.13 203.6,-46.59 210.49,-45.36"/>
</g>
<!-- varx7 -->
<g id="node8" class="node">
<title>varx7</title>
<ellipse fill="none" stroke="black" cx="304" cy="-90" rx="27" ry="18"/>
<text text-anchor="middle" x="304" y="-86.3" font-family="Times,serif" font-size="14.00">x7</text>
</g>
<!-- varx6&#45;&gt;varx7 -->
<g id="edge4" class="edge">
<title>varx6&#45;&gt;varx7</title>
<path fill="none" stroke="black" d="M235.81,-288.21C248.64,-251.09 279.5,-161.86 294.91,-117.27"/>
<polygon fill="black" stroke="black" points="298.26,-118.31 298.22,-107.71 291.64,-116.02 298.26,-118.31"/>
</g>
<!-- varx8 -->
<g id="node9" class="node">
<title>varx8</title>
<ellipse fill="none" stroke="black" cx="323" cy="-162" rx="27" ry="18"/>
<text text-anchor="middle" x="323" y="-158.3" font-family="Times,serif" font-size="14.00">x8</text>
</g>
<!-- varx6&#45;&gt;varx8 -->
<g id="edge2" class="edge">
<title>varx6&#45;&gt;varx8</title>
<path fill="none" stroke="black" d="M246.04,-291.37C257.16,-281.31 271.75,-266.86 282,-252 295.53,-232.39 306.53,-207.59 313.71,-189.16"/>
<polygon fill="black" stroke="black" points="317.05,-190.24 317.31,-179.65 310.5,-187.76 317.05,-190.24"/>
</g>
<!-- varx9 -->
<g id="node10" class="node">
<title>varx9</title>
<ellipse fill="none" stroke="black" cx="361" cy="-234" rx="27" ry="18"/>
<text text-anchor="middle" x="361" y="-230.3" font-family="Times,serif" font-size="14.00">x9</text>
</g>
<!-- varx6&#45;&gt;varx9 -->
<g id="edge1" class="edge">
<title>varx6&#45;&gt;varx9</title>
<path fill="none" stroke="black" d="M250.47,-294.06C272.29,-282.4 307.04,-263.83 331.75,-250.63"/>
<polygon fill="black" stroke="black" points="333.5,-253.66 340.67,-245.86 330.21,-247.49 333.5,-253.66"/>
</g>
<!-- varx8&#45;&gt;varx7 -->
<g id="edge5" class="edge">
<title>varx8&#45;&gt;varx7</title>
<path fill="none" stroke="black" d="M318.4,-144.05C316.25,-136.14 313.65,-126.54 311.24,-117.69"/>
<polygon fill="black" stroke="black" points="314.55,-116.52 308.56,-107.79 307.8,-118.36 314.55,-116.52"/>
</g>
<!-- varx9&#45;&gt;varx8 -->
<g id="edge3" class="edge">
<title>varx9&#45;&gt;varx8</title>
<path fill="none" stroke="black" d="M352.19,-216.76C347.58,-208.28 341.84,-197.71 336.68,-188.2"/>
<polygon fill="black" stroke="black" points="339.61,-186.27 331.77,-179.15 333.46,-189.61 339.61,-186.27"/>
</g>
</g>
</svg>
