<?xml version="1.0" encoding="UTF-8" standalone="no"?>
<!DOCTYPE svg PUBLIC "-//W3C//DTD SVG 1.1//EN"
 "http://www.w3.org/Graphics/SVG/1.1/DTD/svg11.dtd">
<!-- Generated by graphviz version 5.0.0 (20220707.2338)
 -->
<!-- Title: G Pages: 1 -->
<svg width="92pt" height="620pt"
 viewBox="0.00 0.00 92.49 620.00" xmlns="http://www.w3.org/2000/svg" xmlns:xlink="http://www.w3.org/1999/xlink">
<g id="graph0" class="graph" transform="scale(1 1) rotate(0) translate(4 616)">
<title>G</title>
<polygon fill="white" stroke="transparent" points="-4,4 -4,-616 88.49,-616 88.49,4 -4,4"/>
<!-- 8 -->
<g id="node1" class="node">
<title>8</title>
<ellipse fill="none" stroke="black" cx="42.25" cy="-594" rx="38.99" ry="18"/>
<text text-anchor="middle" x="42.25" y="-590.3" font-family="Times,serif" font-size="14.00">x1, x0</text>
</g>
<!-- 9 -->
<g id="node2" class="node">
<title>9</title>
<ellipse fill="none" stroke="black" cx="42.25" cy="-522" rx="42.49" ry="18"/>
<text text-anchor="middle" x="42.25" y="-518.3" font-family="Times,serif" font-size="14.00">x2 : x1</text>
</g>
<!-- 8&#45;&gt;9 -->
<g id="edge1" class="edge">
<title>8&#45;&gt;9</title>
<path fill="none" stroke="black" d="M42.25,-575.7C42.25,-567.98 42.25,-558.71 42.25,-550.11"/>
<polygon fill="black" stroke="black" points="45.75,-550.1 42.25,-540.1 38.75,-550.1 45.75,-550.1"/>
</g>
<!-- 10 -->
<g id="node3" class="node">
<title>10</title>
<ellipse fill="none" stroke="black" cx="42.25" cy="-450" rx="42.49" ry="18"/>
<text text-anchor="middle" x="42.25" y="-446.3" font-family="Times,serif" font-size="14.00">x3 : x2</text>
</g>
<!-- 9&#45;&gt;10 -->
<g id="edge2" class="edge">
<title>9&#45;&gt;10</title>
<path fill="none" stroke="black" d="M42.25,-503.7C42.25,-495.98 42.25,-486.71 42.25,-478.11"/>
<polygon fill="black" stroke="black" points="45.75,-478.1 42.25,-468.1 38.75,-478.1 45.75,-478.1"/>
</g>
<!-- 11 -->
<g id="node4" class="node">
<title>11</title>
<ellipse fill="none" stroke="black" cx="42.25" cy="-378" rx="42.49" ry="18"/>
<text text-anchor="middle" x="42.25" y="-374.3" font-family="Times,serif" font-size="14.00">x4 : x3</text>
</g>
<!-- 10&#45;&gt;11 -->
<g id="edge3" class="edge">
<title>10&#45;&gt;11</title>
<path fill="none" stroke="black" d="M42.25,-431.7C42.25,-423.98 42.25,-414.71 42.25,-406.11"/>
<polygon fill="black" stroke="black" points="45.75,-406.1 42.25,-396.1 38.75,-406.1 45.75,-406.1"/>
</g>
<!-- 12 -->
<g id="node5" class="node">
<title>12</title>
<ellipse fill="none" stroke="black" cx="42.25" cy="-306" rx="42.49" ry="18"/>
<text text-anchor="middle" x="42.25" y="-302.3" font-family="Times,serif" font-size="14.00">x5 : x4</text>
</g>
<!-- 11&#45;&gt;12 -->
<g id="edge4" class="edge">
<title>11&#45;&gt;12</title>
<path fill="none" stroke="black" d="M42.25,-359.7C42.25,-351.98 42.25,-342.71 42.25,-334.11"/>
<polygon fill="black" stroke="black" points="45.75,-334.1 42.25,-324.1 38.75,-334.1 45.75,-334.1"/>
</g>
<!-- 13 -->
<g id="node6" class="node">
<title>13</title>
<ellipse fill="none" stroke="black" cx="42.25" cy="-234" rx="42.49" ry="18"/>
<text text-anchor="middle" x="42.25" y="-230.3" font-family="Times,serif" font-size="14.00">x6 : x5</text>
</g>
<!-- 12&#45;&gt;13 -->
<g id="edge5" class="edge">
<title>12&#45;&gt;13</title>
<path fill="none" stroke="black" d="M42.25,-287.7C42.25,-279.98 42.25,-270.71 42.25,-262.11"/>
<polygon fill="black" stroke="black" points="45.75,-262.1 42.25,-252.1 38.75,-262.1 45.75,-262.1"/>
</g>
<!-- 14 -->
<g id="node7" class="node">
<title>14</title>
<ellipse fill="none" stroke="black" cx="42.25" cy="-162" rx="42.49" ry="18"/>
<text text-anchor="middle" x="42.25" y="-158.3" font-family="Times,serif" font-size="14.00">x7 : x6</text>
</g>
<!-- 13&#45;&gt;14 -->
<g id="edge6" class="edge">
<title>13&#45;&gt;14</title>
<path fill="none" stroke="black" d="M42.25,-215.7C42.25,-207.98 42.25,-198.71 42.25,-190.11"/>
<polygon fill="black" stroke="black" points="45.75,-190.1 42.25,-180.1 38.75,-190.1 45.75,-190.1"/>
</g>
<!-- 15 -->
<g id="node8" class="node">
<title>15</title>
<ellipse fill="none" stroke="black" cx="42.25" cy="-90" rx="42.49" ry="18"/>
<text text-anchor="middle" x="42.25" y="-86.3" font-family="Times,serif" font-size="14.00">x8 : x7</text>
</g>
<!-- 14&#45;&gt;15 -->
<g id="edge7" class="edge">
<title>14&#45;&gt;15</title>
<path fill="none" stroke="black" d="M42.25,-143.7C42.25,-135.98 42.25,-126.71 42.25,-118.11"/>
<polygon fill="black" stroke="black" points="45.75,-118.1 42.25,-108.1 38.75,-118.1 45.75,-118.1"/>
</g>
<!-- 16 -->
<g id="node9" class="node">
<title>16</title>
<ellipse fill="none" stroke="black" cx="42.25" cy="-18" rx="42.49" ry="18"/>
<text text-anchor="middle" x="42.25" y="-14.3" font-family="Times,serif" font-size="14.00">x9 : x8</text>
</g>
<!-- 15&#45;&gt;16 -->
<g id="edge8" class="edge">
<title>15&#45;&gt;16</title>
<path fill="none" stroke="black" d="M42.25,-71.7C42.25,-63.98 42.25,-54.71 42.25,-46.11"/>
<polygon fill="black" stroke="black" points="45.75,-46.1 42.25,-36.1 38.75,-46.1 45.75,-46.1"/>
</g>
</g>
</svg>
