<?xml version="1.0" encoding="UTF-8" standalone="no"?>
<!DOCTYPE svg PUBLIC "-//W3C//DTD SVG 1.1//EN"
 "http://www.w3.org/Graphics/SVG/1.1/DTD/svg11.dtd">
<!-- Generated by graphviz version 5.0.0 (20220707.2338)
 -->
<!-- Title: G Pages: 1 -->
<svg width="194pt" height="332pt"
 viewBox="0.00 0.00 194.49 332.00" xmlns="http://www.w3.org/2000/svg" xmlns:xlink="http://www.w3.org/1999/xlink">
<g id="graph0" class="graph" transform="scale(1 1) rotate(0) translate(4 328)">
<title>G</title>
<polygon fill="white" stroke="transparent" points="-4,4 -4,-328 190.49,-328 190.49,4 -4,4"/>
<!-- 16 -->
<g id="node1" class="node">
<title>16</title>
<ellipse fill="none" stroke="black" cx="93.25" cy="-306" rx="38.99" ry="18"/>
<text text-anchor="middle" x="93.25" y="-302.3" font-family="Times,serif" font-size="14.00">x4, x5</text>
</g>
<!-- 17 -->
<g id="node2" class="node">
<title>17</title>
<ellipse fill="none" stroke="black" cx="42.25" cy="-234" rx="42.49" ry="18"/>
<text text-anchor="middle" x="42.25" y="-230.3" font-family="Times,serif" font-size="14.00">x3 : x4</text>
</g>
<!-- 16&#45;&gt;17 -->
<g id="edge1" class="edge">
<title>16&#45;&gt;17</title>
<path fill="none" stroke="black" d="M81.42,-288.76C75.14,-280.14 67.28,-269.36 60.26,-259.73"/>
<polygon fill="black" stroke="black" points="63.08,-257.65 54.36,-251.63 57.42,-261.78 63.08,-257.65"/>
</g>
<!-- 21 -->
<g id="node6" class="node">
<title>21</title>
<ellipse fill="none" stroke="black" cx="144.25" cy="-234" rx="42.49" ry="18"/>
<text text-anchor="middle" x="144.25" y="-230.3" font-family="Times,serif" font-size="14.00">x6 : x5</text>
</g>
<!-- 16&#45;&gt;21 -->
<g id="edge5" class="edge">
<title>16&#45;&gt;21</title>
<path fill="none" stroke="black" d="M105.07,-288.76C111.36,-280.14 119.21,-269.36 126.23,-259.73"/>
<polygon fill="black" stroke="black" points="129.07,-261.78 132.13,-251.63 123.41,-257.65 129.07,-261.78"/>
</g>
<!-- 18 -->
<g id="node3" class="node">
<title>18</title>
<ellipse fill="none" stroke="black" cx="42.25" cy="-162" rx="42.49" ry="18"/>
<text text-anchor="middle" x="42.25" y="-158.3" font-family="Times,serif" font-size="14.00">x2 : x3</text>
</g>
<!-- 17&#45;&gt;18 -->
<g id="edge2" class="edge">
<title>17&#45;&gt;18</title>
<path fill="none" stroke="black" d="M42.25,-215.7C42.25,-207.98 42.25,-198.71 42.25,-190.11"/>
<polygon fill="black" stroke="black" points="45.75,-190.1 42.25,-180.1 38.75,-190.1 45.75,-190.1"/>
</g>
<!-- 19 -->
<g id="node4" class="node">
<title>19</title>
<ellipse fill="none" stroke="black" cx="42.25" cy="-90" rx="42.49" ry="18"/>
<text text-anchor="middle" x="42.25" y="-86.3" font-family="Times,serif" font-size="14.00">x1 : x2</text>
</g>
<!-- 18&#45;&gt;19 -->
<g id="edge3" class="edge">
<title>18&#45;&gt;19</title>
<path fill="none" stroke="black" d="M42.25,-143.7C42.25,-135.98 42.25,-126.71 42.25,-118.11"/>
<polygon fill="black" stroke="black" points="45.75,-118.1 42.25,-108.1 38.75,-118.1 45.75,-118.1"/>
</g>
<!-- 20 -->
<g id="node5" class="node">
<title>20</title>
<ellipse fill="none" stroke="black" cx="42.25" cy="-18" rx="42.49" ry="18"/>
<text text-anchor="middle" x="42.25" y="-14.3" font-family="Times,serif" font-size="14.00">x0 : x1</text>
</g>
<!-- 19&#45;&gt;20 -->
<g id="edge4" class="edge">
<title>19&#45;&gt;20</title>
<path fill="none" stroke="black" d="M42.25,-71.7C42.25,-63.98 42.25,-54.71 42.25,-46.11"/>
<polygon fill="black" stroke="black" points="45.75,-46.1 42.25,-36.1 38.75,-46.1 45.75,-46.1"/>
</g>
<!-- 22 -->
<g id="node7" class="node">
<title>22</title>
<ellipse fill="none" stroke="black" cx="144.25" cy="-162" rx="42.49" ry="18"/>
<text text-anchor="middle" x="144.25" y="-158.3" font-family="Times,serif" font-size="14.00">x7 : x6</text>
</g>
<!-- 21&#45;&gt;22 -->
<g id="edge6" class="edge">
<title>21&#45;&gt;22</title>
<path fill="none" stroke="black" d="M144.25,-215.7C144.25,-207.98 144.25,-198.71 144.25,-190.11"/>
<polygon fill="black" stroke="black" points="147.75,-190.1 144.25,-180.1 140.75,-190.1 147.75,-190.1"/>
</g>
<!-- 23 -->
<g id="node8" class="node">
<title>23</title>
<ellipse fill="none" stroke="black" cx="144.25" cy="-90" rx="42.49" ry="18"/>
<text text-anchor="middle" x="144.25" y="-86.3" font-family="Times,serif" font-size="14.00">x8 : x7</text>
</g>
<!-- 22&#45;&gt;23 -->
<g id="edge7" class="edge">
<title>22&#45;&gt;23</title>
<path fill="none" stroke="black" d="M144.25,-143.7C144.25,-135.98 144.25,-126.71 144.25,-118.11"/>
<polygon fill="black" stroke="black" points="147.75,-118.1 144.25,-108.1 140.75,-118.1 147.75,-118.1"/>
</g>
<!-- 24 -->
<g id="node9" class="node">
<title>24</title>
<ellipse fill="none" stroke="black" cx="144.25" cy="-18" rx="42.49" ry="18"/>
<text text-anchor="middle" x="144.25" y="-14.3" font-family="Times,serif" font-size="14.00">x9 : x8</text>
</g>
<!-- 23&#45;&gt;24 -->
<g id="edge8" class="edge">
<title>23&#45;&gt;24</title>
<path fill="none" stroke="black" d="M144.25,-71.7C144.25,-63.98 144.25,-54.71 144.25,-46.11"/>
<polygon fill="black" stroke="black" points="147.75,-46.1 144.25,-36.1 140.75,-46.1 147.75,-46.1"/>
</g>
</g>
</svg>
