<?xml version="1.0" encoding="UTF-8" standalone="no"?>
<!DOCTYPE svg PUBLIC "-//W3C//DTD SVG 1.1//EN"
 "http://www.w3.org/Graphics/SVG/1.1/DTD/svg11.dtd">
<!-- Generated by graphviz version 5.0.0 (20220707.2338)
 -->
<!-- Pages: 1 -->
<svg width="360pt" height="42pt"
 viewBox="0.00 0.00 360.00 42.39" xmlns="http://www.w3.org/2000/svg" xmlns:xlink="http://www.w3.org/1999/xlink">
<g id="graph0" class="graph" transform="scale(0.507042 0.507042) rotate(0) translate(4 79.6)">
<polygon fill="white" stroke="transparent" points="-4,4 -4,-79.6 706,-79.6 706,4 -4,4"/>
<!-- var8646911284551352320 -->
<g id="node1" class="node">
<title>var8646911284551352320</title>
<ellipse fill="none" stroke="black" cx="27" cy="-57.6" rx="27" ry="18"/>
<text text-anchor="middle" x="27" y="-53.9" font-family="Times,serif" font-size="14.00">x0</text>
</g>
<!-- factor0 -->
<g id="node11" class="node">
<title>factor0</title>
<ellipse fill="black" stroke="black" cx="27" cy="-1.8" rx="1.8" ry="1.8"/>
</g>
<!-- var8646911284551352320&#45;&#45;factor0 -->
<g id="edge1" class="edge">
<title>var8646911284551352320&#45;&#45;factor0</title>
<path fill="none" stroke="black" d="M27,-39.58C27,-25.79 27,-7.97 27,-3.73"/>
</g>
<!-- factor10 -->
<g id="node21" class="node">
<title>factor10</title>
<ellipse fill="black" stroke="black" cx="63" cy="-1.8" rx="1.8" ry="1.8"/>
</g>
<!-- var8646911284551352320&#45;&#45;factor10 -->
<g id="edge11" class="edge">
<title>var8646911284551352320&#45;&#45;factor10</title>
<path fill="none" stroke="black" d="M37.61,-40.75C46.9,-26.86 59.37,-8.22 62.34,-3.78"/>
</g>
<!-- var8646911284551352321 -->
<g id="node2" class="node">
<title>var8646911284551352321</title>
<ellipse fill="none" stroke="black" cx="99" cy="-57.6" rx="27" ry="18"/>
<text text-anchor="middle" x="99" y="-53.9" font-family="Times,serif" font-size="14.00">x1</text>
</g>
<!-- factor1 -->
<g id="node12" class="node">
<title>factor1</title>
<ellipse fill="black" stroke="black" cx="99" cy="-1.8" rx="1.8" ry="1.8"/>
</g>
<!-- var8646911284551352321&#45;&#45;factor1 -->
<g id="edge2" class="edge">
<title>var8646911284551352321&#45;&#45;factor1</title>
<path fill="none" stroke="black" d="M99,-39.58C99,-25.79 99,-7.97 99,-3.73"/>
</g>
<!-- var8646911284551352321&#45;&#45;factor10 -->
<g id="edge12" class="edge">
<title>var8646911284551352321&#45;&#45;factor10</title>
<path fill="none" stroke="black" d="M88.39,-40.75C79.1,-26.86 66.63,-8.22 63.66,-3.78"/>
</g>
<!-- factor11 -->
<g id="node22" class="node">
<title>factor11</title>
<ellipse fill="black" stroke="black" cx="135" cy="-1.8" rx="1.8" ry="1.8"/>
</g>
<!-- var8646911284551352321&#45;&#45;factor11 -->
<g id="edge13" class="edge">
<title>var8646911284551352321&#45;&#45;factor11</title>
<path fill="none" stroke="black" d="M109.61,-40.75C118.9,-26.86 131.37,-8.22 134.34,-3.78"/>
</g>
<!-- var8646911284551352322 -->
<g id="node3" class="node">
<title>var8646911284551352322</title>
<ellipse fill="none" stroke="black" cx="171" cy="-57.6" rx="27" ry="18"/>
<text text-anchor="middle" x="171" y="-53.9" font-family="Times,serif" font-size="14.00">x2</text>
</g>
<!-- factor2 -->
<g id="node13" class="node">
<title>factor2</title>
<ellipse fill="black" stroke="black" cx="171" cy="-1.8" rx="1.8" ry="1.8"/>
</g>
<!-- var8646911284551352322&#45;&#45;factor2 -->
<g id="edge3" class="edge">
<title>var8646911284551352322&#45;&#45;factor2</title>
<path fill="none" stroke="black" d="M171,-39.58C171,-25.79 171,-7.97 171,-3.73"/>
</g>
<!-- var8646911284551352322&#45;&#45;factor11 -->
<g id="edge14" class="edge">
<title>var8646911284551352322&#45;&#45;factor11</title>
<path fill="none" stroke="black" d="M160.39,-40.75C151.1,-26.86 138.63,-8.22 135.66,-3.78"/>
</g>
<!-- factor12 -->
<g id="node23" class="node">
<title>factor12</title>
<ellipse fill="black" stroke="black" cx="207" cy="-1.8" rx="1.8" ry="1.8"/>
</g>
<!-- var8646911284551352322&#45;&#45;factor12 -->
<g id="edge15" class="edge">
<title>var8646911284551352322&#45;&#45;factor12</title>
<path fill="none" stroke="black" d="M181.61,-40.75C190.9,-26.86 203.37,-8.22 206.34,-3.78"/>
</g>
<!-- var8646911284551352323 -->
<g id="node4" class="node">
<title>var8646911284551352323</title>
<ellipse fill="none" stroke="black" cx="243" cy="-57.6" rx="27" ry="18"/>
<text text-anchor="middle" x="243" y="-53.9" font-family="Times,serif" font-size="14.00">x3</text>
</g>
<!-- factor3 -->
<g id="node14" class="node">
<title>factor3</title>
<ellipse fill="black" stroke="black" cx="243" cy="-1.8" rx="1.8" ry="1.8"/>
</g>
<!-- var8646911284551352323&#45;&#45;factor3 -->
<g id="edge4" class="edge">
<title>var8646911284551352323&#45;&#45;factor3</title>
<path fill="none" stroke="black" d="M243,-39.58C243,-25.79 243,-7.97 243,-3.73"/>
</g>
<!-- var8646911284551352323&#45;&#45;factor12 -->
<g id="edge16" class="edge">
<title>var8646911284551352323&#45;&#45;factor12</title>
<path fill="none" stroke="black" d="M232.39,-40.75C223.1,-26.86 210.63,-8.22 207.66,-3.78"/>
</g>
<!-- factor13 -->
<g id="node24" class="node">
<title>factor13</title>
<ellipse fill="black" stroke="black" cx="279" cy="-1.8" rx="1.8" ry="1.8"/>
</g>
<!-- var8646911284551352323&#45;&#45;factor13 -->
<g id="edge17" class="edge">
<title>var8646911284551352323&#45;&#45;factor13</title>
<path fill="none" stroke="black" d="M253.61,-40.75C262.9,-26.86 275.37,-8.22 278.34,-3.78"/>
</g>
<!-- var8646911284551352324 -->
<g id="node5" class="node">
<title>var8646911284551352324</title>
<ellipse fill="none" stroke="black" cx="315" cy="-57.6" rx="27" ry="18"/>
<text text-anchor="middle" x="315" y="-53.9" font-family="Times,serif" font-size="14.00">x4</text>
</g>
<!-- factor4 -->
<g id="node15" class="node">
<title>factor4</title>
<ellipse fill="black" stroke="black" cx="315" cy="-1.8" rx="1.8" ry="1.8"/>
</g>
<!-- var8646911284551352324&#45;&#45;factor4 -->
<g id="edge5" class="edge">
<title>var8646911284551352324&#45;&#45;factor4</title>
<path fill="none" stroke="black" d="M315,-39.58C315,-25.79 315,-7.97 315,-3.73"/>
</g>
<!-- var8646911284551352324&#45;&#45;factor13 -->
<g id="edge18" class="edge">
<title>var8646911284551352324&#45;&#45;factor13</title>
<path fill="none" stroke="black" d="M304.39,-40.75C295.1,-26.86 282.63,-8.22 279.66,-3.78"/>
</g>
<!-- factor14 -->
<g id="node25" class="node">
<title>factor14</title>
<ellipse fill="black" stroke="black" cx="351" cy="-1.8" rx="1.8" ry="1.8"/>
</g>
<!-- var8646911284551352324&#45;&#45;factor14 -->
<g id="edge19" class="edge">
<title>var8646911284551352324&#45;&#45;factor14</title>
<path fill="none" stroke="black" d="M325.61,-40.75C334.9,-26.86 347.37,-8.22 350.34,-3.78"/>
</g>
<!-- var8646911284551352325 -->
<g id="node6" class="node">
<title>var8646911284551352325</title>
<ellipse fill="none" stroke="black" cx="387" cy="-57.6" rx="27" ry="18"/>
<text text-anchor="middle" x="387" y="-53.9" font-family="Times,serif" font-size="14.00">x5</text>
</g>
<!-- factor5 -->
<g id="node16" class="node">
<title>factor5</title>
<ellipse fill="black" stroke="black" cx="387" cy="-1.8" rx="1.8" ry="1.8"/>
</g>
<!-- var8646911284551352325&#45;&#45;factor5 -->
<g id="edge6" class="edge">
<title>var8646911284551352325&#45;&#45;factor5</title>
<path fill="none" stroke="black" d="M387,-39.58C387,-25.79 387,-7.97 387,-3.73"/>
</g>
<!-- var8646911284551352325&#45;&#45;factor14 -->
<g id="edge20" class="edge">
<title>var8646911284551352325&#45;&#45;factor14</title>
<path fill="none" stroke="black" d="M376.39,-40.75C367.1,-26.86 354.63,-8.22 351.66,-3.78"/>
</g>
<!-- factor15 -->
<g id="node26" class="node">
<title>factor15</title>
<ellipse fill="black" stroke="black" cx="423" cy="-1.8" rx="1.8" ry="1.8"/>
</g>
<!-- var8646911284551352325&#45;&#45;factor15 -->
<g id="edge21" class="edge">
<title>var8646911284551352325&#45;&#45;factor15</title>
<path fill="none" stroke="black" d="M397.61,-40.75C406.9,-26.86 419.37,-8.22 422.34,-3.78"/>
</g>
<!-- var8646911284551352326 -->
<g id="node7" class="node">
<title>var8646911284551352326</title>
<ellipse fill="none" stroke="black" cx="459" cy="-57.6" rx="27" ry="18"/>
<text text-anchor="middle" x="459" y="-53.9" font-family="Times,serif" font-size="14.00">x6</text>
</g>
<!-- factor6 -->
<g id="node17" class="node">
<title>factor6</title>
<ellipse fill="black" stroke="black" cx="459" cy="-1.8" rx="1.8" ry="1.8"/>
</g>
<!-- var8646911284551352326&#45;&#45;factor6 -->
<g id="edge7" class="edge">
<title>var8646911284551352326&#45;&#45;factor6</title>
<path fill="none" stroke="black" d="M459,-39.58C459,-25.79 459,-7.97 459,-3.73"/>
</g>
<!-- var8646911284551352326&#45;&#45;factor15 -->
<g id="edge22" class="edge">
<title>var8646911284551352326&#45;&#45;factor15</title>
<path fill="none" stroke="black" d="M448.39,-40.75C439.1,-26.86 426.63,-8.22 423.66,-3.78"/>
</g>
<!-- factor16 -->
<g id="node27" class="node">
<title>factor16</title>
<ellipse fill="black" stroke="black" cx="495" cy="-1.8" rx="1.8" ry="1.8"/>
</g>
<!-- var8646911284551352326&#45;&#45;factor16 -->
<g id="edge23" class="edge">
<title>var8646911284551352326&#45;&#45;factor16</title>
<path fill="none" stroke="black" d="M469.61,-40.75C478.9,-26.86 491.37,-8.22 494.34,-3.78"/>
</g>
<!-- var8646911284551352327 -->
<g id="node8" class="node">
<title>var8646911284551352327</title>
<ellipse fill="none" stroke="black" cx="531" cy="-57.6" rx="27" ry="18"/>
<text text-anchor="middle" x="531" y="-53.9" font-family="Times,serif" font-size="14.00">x7</text>
</g>
<!-- factor7 -->
<g id="node18" class="node">
<title>factor7</title>
<ellipse fill="black" stroke="black" cx="531" cy="-1.8" rx="1.8" ry="1.8"/>
</g>
<!-- var8646911284551352327&#45;&#45;factor7 -->
<g id="edge8" class="edge">
<title>var8646911284551352327&#45;&#45;factor7</title>
<path fill="none" stroke="black" d="M531,-39.58C531,-25.79 531,-7.97 531,-3.73"/>
</g>
<!-- var8646911284551352327&#45;&#45;factor16 -->
<g id="edge24" class="edge">
<title>var8646911284551352327&#45;&#45;factor16</title>
<path fill="none" stroke="black" d="M520.39,-40.75C511.1,-26.86 498.63,-8.22 495.66,-3.78"/>
</g>
<!-- factor17 -->
<g id="node28" class="node">
<title>factor17</title>
<ellipse fill="black" stroke="black" cx="567" cy="-1.8" rx="1.8" ry="1.8"/>
</g>
<!-- var8646911284551352327&#45;&#45;factor17 -->
<g id="edge25" class="edge">
<title>var8646911284551352327&#45;&#45;factor17</title>
<path fill="none" stroke="black" d="M541.61,-40.75C550.9,-26.86 563.37,-8.22 566.34,-3.78"/>
</g>
<!-- var8646911284551352328 -->
<g id="node9" class="node">
<title>var8646911284551352328</title>
<ellipse fill="none" stroke="black" cx="603" cy="-57.6" rx="27" ry="18"/>
<text text-anchor="middle" x="603" y="-53.9" font-family="Times,serif" font-size="14.00">x8</text>
</g>
<!-- factor8 -->
<g id="node19" class="node">
<title>factor8</title>
<ellipse fill="black" stroke="black" cx="603" cy="-1.8" rx="1.8" ry="1.8"/>
</g>
<!-- var8646911284551352328&#45;&#45;factor8 -->
<g id="edge9" class="edge">
<title>var8646911284551352328&#45;&#45;factor8</title>
<path fill="none" stroke="black" d="M603,-39.58C603,-25.79 603,-7.97 603,-3.73"/>
</g>
<!-- var8646911284551352328&#45;&#45;factor17 -->
<g id="edge26" class="edge">
<title>var8646911284551352328&#45;&#45;factor17</title>
<path fill="none" stroke="black" d="M592.39,-40.75C583.1,-26.86 570.63,-8.22 567.66,-3.78"/>
</g>
<!-- factor18 -->
<g id="node29" class="node">
<title>factor18</title>
<ellipse fill="black" stroke="black" cx="639" cy="-1.8" rx="1.8" ry="1.8"/>
</g>
<!-- var8646911284551352328&#45;&#45;factor18 -->
<g id="edge27" class="edge">
<title>var8646911284551352328&#45;&#45;factor18</title>
<path fill="none" stroke="black" d="M613.61,-40.75C622.9,-26.86 635.37,-8.22 638.34,-3.78"/>
</g>
<!-- var8646911284551352329 -->
<g id="node10" class="node">
<title>var8646911284551352329</title>
<ellipse fill="none" stroke="black" cx="675" cy="-57.6" rx="27" ry="18"/>
<text text-anchor="middle" x="675" y="-53.9" font-family="Times,serif" font-size="14.00">x9</text>
</g>
<!-- factor9 -->
<g id="node20" class="node">
<title>factor9</title>
<ellipse fill="black" stroke="black" cx="675" cy="-1.8" rx="1.8" ry="1.8"/>
</g>
<!-- var8646911284551352329&#45;&#45;factor9 -->
<g id="edge10" class="edge">
<title>var8646911284551352329&#45;&#45;factor9</title>
<path fill="none" stroke="black" d="M675,-39.58C675,-25.79 675,-7.97 675,-3.73"/>
</g>
<!-- var8646911284551352329&#45;&#45;factor18 -->
<g id="edge28" class="edge">
<title>var8646911284551352329&#45;&#45;factor18</title>
<path fill="none" stroke="black" d="M664.39,-40.75C655.1,-26.86 642.63,-8.22 639.66,-3.78"/>
</g>
</g>
</svg>
