<?xml version="1.0" encoding="UTF-8" standalone="no"?>
<!DOCTYPE svg PUBLIC "-//W3C//DTD SVG 1.1//EN"
 "http://www.w3.org/Graphics/SVG/1.1/DTD/svg11.dtd">
<!-- Generated by graphviz version 5.0.0 (20220707.2338)
 -->
<!-- Title: G Pages: 1 -->
<svg width="466pt" height="188pt"
 viewBox="0.00 0.00 466.49 188.00" xmlns="http://www.w3.org/2000/svg" xmlns:xlink="http://www.w3.org/1999/xlink">
<g id="graph0" class="graph" transform="scale(1 1) rotate(0) translate(4 184)">
<title>G</title>
<polygon fill="white" stroke="transparent" points="-4,4 -4,-184 462.49,-184 462.49,4 -4,4"/>
<!-- 24 -->
<g id="node1" class="node">
<title>24</title>
<ellipse fill="none" stroke="black" cx="229.25" cy="-162" rx="38.99" ry="18"/>
<text text-anchor="middle" x="229.25" y="-158.3" font-family="Times,serif" font-size="14.00">x4, x5</text>
</g>
<!-- 25 -->
<g id="node2" class="node">
<title>25</title>
<ellipse fill="none" stroke="black" cx="161.25" cy="-90" rx="59.29" ry="18"/>
<text text-anchor="middle" x="161.25" y="-86.3" font-family="Times,serif" font-size="14.00">x3, x1 : x4</text>
</g>
<!-- 24&#45;&gt;25 -->
<g id="edge1" class="edge">
<title>24&#45;&gt;25</title>
<path fill="none" stroke="black" d="M213.82,-145.12C205.2,-136.24 194.28,-125.01 184.64,-115.08"/>
<polygon fill="black" stroke="black" points="187.04,-112.53 177.56,-107.8 182.02,-117.41 187.04,-112.53"/>
</g>
<!-- 28 -->
<g id="node5" class="node">
<title>28</title>
<ellipse fill="none" stroke="black" cx="297.25" cy="-90" rx="59.29" ry="18"/>
<text text-anchor="middle" x="297.25" y="-86.3" font-family="Times,serif" font-size="14.00">x6, x8 : x5</text>
</g>
<!-- 24&#45;&gt;28 -->
<g id="edge4" class="edge">
<title>24&#45;&gt;28</title>
<path fill="none" stroke="black" d="M244.68,-145.12C253.29,-136.24 264.21,-125.01 273.86,-115.08"/>
<polygon fill="black" stroke="black" points="276.47,-117.41 280.93,-107.8 271.45,-112.53 276.47,-117.41"/>
</g>
<!-- 26 -->
<g id="node3" class="node">
<title>26</title>
<ellipse fill="none" stroke="black" cx="42.25" cy="-18" rx="42.49" ry="18"/>
<text text-anchor="middle" x="42.25" y="-14.3" font-family="Times,serif" font-size="14.00">x0 : x1</text>
</g>
<!-- 25&#45;&gt;26 -->
<g id="edge2" class="edge">
<title>25&#45;&gt;26</title>
<path fill="none" stroke="black" d="M135.13,-73.64C117.49,-63.26 94.07,-49.48 75.15,-38.36"/>
<polygon fill="black" stroke="black" points="76.67,-35.19 66.28,-33.14 73.12,-41.22 76.67,-35.19"/>
</g>
<!-- 27 -->
<g id="node4" class="node">
<title>27</title>
<ellipse fill="none" stroke="black" cx="161.25" cy="-18" rx="59.29" ry="18"/>
<text text-anchor="middle" x="161.25" y="-14.3" font-family="Times,serif" font-size="14.00">x2 : x1, x3</text>
</g>
<!-- 25&#45;&gt;27 -->
<g id="edge3" class="edge">
<title>25&#45;&gt;27</title>
<path fill="none" stroke="black" d="M161.25,-71.7C161.25,-63.98 161.25,-54.71 161.25,-46.11"/>
<polygon fill="black" stroke="black" points="164.75,-46.1 161.25,-36.1 157.75,-46.1 164.75,-46.1"/>
</g>
<!-- 29 -->
<g id="node6" class="node">
<title>29</title>
<ellipse fill="none" stroke="black" cx="297.25" cy="-18" rx="59.29" ry="18"/>
<text text-anchor="middle" x="297.25" y="-14.3" font-family="Times,serif" font-size="14.00">x7 : x6, x8</text>
</g>
<!-- 28&#45;&gt;29 -->
<g id="edge5" class="edge">
<title>28&#45;&gt;29</title>
<path fill="none" stroke="black" d="M297.25,-71.7C297.25,-63.98 297.25,-54.71 297.25,-46.11"/>
<polygon fill="black" stroke="black" points="300.75,-46.1 297.25,-36.1 293.75,-46.1 300.75,-46.1"/>
</g>
<!-- 30 -->
<g id="node7" class="node">
<title>30</title>
<ellipse fill="none" stroke="black" cx="416.25" cy="-18" rx="42.49" ry="18"/>
<text text-anchor="middle" x="416.25" y="-14.3" font-family="Times,serif" font-size="14.00">x9 : x8</text>
</g>
<!-- 28&#45;&gt;30 -->
<g id="edge6" class="edge">
<title>28&#45;&gt;30</title>
<path fill="none" stroke="black" d="M323.36,-73.64C341,-63.26 364.43,-49.48 383.34,-38.36"/>
<polygon fill="black" stroke="black" points="385.37,-41.22 392.22,-33.14 381.82,-35.19 385.37,-41.22"/>
</g>
</g>
</svg>
