<?xml version="1.0" encoding="UTF-8" standalone="no"?>
<!DOCTYPE svg PUBLIC "-//W3C//DTD SVG 1.1//EN"
 "http://www.w3.org/Graphics/SVG/1.1/DTD/svg11.dtd">
<!-- Generated by graphviz version 5.0.0 (20220707.2338)
 -->
<!-- Title: G Pages: 1 -->
<svg width="398pt" height="188pt"
 viewBox="0.00 0.00 398.29 188.00" xmlns="http://www.w3.org/2000/svg" xmlns:xlink="http://www.w3.org/1999/xlink">
<g id="graph0" class="graph" transform="scale(1 1) rotate(0) translate(4 184)">
<title>G</title>
<polygon fill="white" stroke="transparent" points="-4,4 -4,-184 394.29,-184 394.29,4 -4,4"/>
<!-- 30 -->
<g id="node1" class="node">
<title>30</title>
<ellipse fill="none" stroke="black" cx="195.14" cy="-162" rx="55.79" ry="18"/>
<text text-anchor="middle" x="195.14" y="-158.3" font-family="Times,serif" font-size="14.00">x3, x2, x6</text>
</g>
<!-- 31 -->
<g id="node2" class="node">
<title>31</title>
<ellipse fill="none" stroke="black" cx="59.14" cy="-90" rx="59.29" ry="18"/>
<text text-anchor="middle" x="59.14" y="-86.3" font-family="Times,serif" font-size="14.00">x1, x0 : x2</text>
</g>
<!-- 30&#45;&gt;31 -->
<g id="edge1" class="edge">
<title>30&#45;&gt;31</title>
<path fill="none" stroke="black" d="M166.63,-146.33C146.46,-135.94 119.19,-121.91 97.17,-110.57"/>
<polygon fill="black" stroke="black" points="98.58,-107.36 88.09,-105.9 95.38,-113.58 98.58,-107.36"/>
</g>
<!-- 32 -->
<g id="node3" class="node">
<title>32</title>
<ellipse fill="none" stroke="black" cx="195.14" cy="-90" rx="59.29" ry="18"/>
<text text-anchor="middle" x="195.14" y="-86.3" font-family="Times,serif" font-size="14.00">x4 : x3, x6</text>
</g>
<!-- 30&#45;&gt;32 -->
<g id="edge2" class="edge">
<title>30&#45;&gt;32</title>
<path fill="none" stroke="black" d="M195.14,-143.7C195.14,-135.98 195.14,-126.71 195.14,-118.11"/>
<polygon fill="black" stroke="black" points="198.64,-118.1 195.14,-108.1 191.64,-118.1 198.64,-118.1"/>
</g>
<!-- 34 -->
<g id="node5" class="node">
<title>34</title>
<ellipse fill="none" stroke="black" cx="331.14" cy="-90" rx="59.29" ry="18"/>
<text text-anchor="middle" x="331.14" y="-86.3" font-family="Times,serif" font-size="14.00">x8, x9 : x6</text>
</g>
<!-- 30&#45;&gt;34 -->
<g id="edge4" class="edge">
<title>30&#45;&gt;34</title>
<path fill="none" stroke="black" d="M223.65,-146.33C243.83,-135.94 271.1,-121.91 293.12,-110.57"/>
<polygon fill="black" stroke="black" points="294.91,-113.58 302.2,-105.9 291.71,-107.36 294.91,-113.58"/>
</g>
<!-- 33 -->
<g id="node4" class="node">
<title>33</title>
<ellipse fill="none" stroke="black" cx="195.14" cy="-18" rx="59.29" ry="18"/>
<text text-anchor="middle" x="195.14" y="-14.3" font-family="Times,serif" font-size="14.00">x5 : x4, x6</text>
</g>
<!-- 32&#45;&gt;33 -->
<g id="edge3" class="edge">
<title>32&#45;&gt;33</title>
<path fill="none" stroke="black" d="M195.14,-71.7C195.14,-63.98 195.14,-54.71 195.14,-46.11"/>
<polygon fill="black" stroke="black" points="198.64,-46.1 195.14,-36.1 191.64,-46.1 198.64,-46.1"/>
</g>
<!-- 35 -->
<g id="node6" class="node">
<title>35</title>
<ellipse fill="none" stroke="black" cx="331.14" cy="-18" rx="59.29" ry="18"/>
<text text-anchor="middle" x="331.14" y="-14.3" font-family="Times,serif" font-size="14.00">x7 : x6, x8</text>
</g>
<!-- 34&#45;&gt;35 -->
<g id="edge5" class="edge">
<title>34&#45;&gt;35</title>
<path fill="none" stroke="black" d="M331.14,-71.7C331.14,-63.98 331.14,-54.71 331.14,-46.11"/>
<polygon fill="black" stroke="black" points="334.64,-46.1 331.14,-36.1 327.64,-46.1 334.64,-46.1"/>
</g>
</g>
</svg>
