<?xml version="1.0" encoding="UTF-8" standalone="no"?>
<!DOCTYPE svg PUBLIC "-//W3C//DTD SVG 1.1//EN"
 "http://www.w3.org/Graphics/SVG/1.1/DTD/svg11.dtd">
<!-- Generated by graphviz version 3.0.0 (20220315.2325)
 -->
<!-- Pages: 1 -->
<svg width="337pt" height="332pt"
 viewBox="0.00 0.00 337.00 332.00" xmlns="http://www.w3.org/2000/svg" xmlns:xlink="http://www.w3.org/1999/xlink">
<g id="graph0" class="graph" transform="scale(1 1) rotate(0) translate(4 328)">
<polygon fill="white" stroke="transparent" points="-4,4 -4,-328 333,-328 333,4 -4,4"/>
<!-- varx0 -->
<g id="node1" class="node">
<title>varx0</title>
<ellipse fill="none" stroke="black" cx="27" cy="-90" rx="27" ry="18"/>
<text text-anchor="middle" x="27" y="-86.3" font-family="Times,serif" font-size="14.00">x0</text>
</g>
<!-- varx1 -->
<g id="node2" class="node">
<title>varx1</title>
<ellipse fill="none" stroke="black" cx="82" cy="-162" rx="27" ry="18"/>
<text text-anchor="middle" x="82" y="-158.3" font-family="Times,serif" font-size="14.00">x1</text>
</g>
<!-- varx1&#45;&gt;varx0 -->
<g id="edge13" class="edge">
<title>varx1&#45;&gt;varx0</title>
<path fill="none" stroke="black" d="M70.07,-145.81C62.79,-136.55 53.34,-124.52 45.15,-114.09"/>
<polygon fill="black" stroke="black" points="47.84,-111.86 38.91,-106.16 42.34,-116.18 47.84,-111.86"/>
</g>
<!-- varx2 -->
<g id="node3" class="node">
<title>varx2</title>
<ellipse fill="none" stroke="black" cx="109" cy="-18" rx="27" ry="18"/>
<text text-anchor="middle" x="109" y="-14.3" font-family="Times,serif" font-size="14.00">x2</text>
</g>
<!-- varx1&#45;&gt;varx2 -->
<g id="edge11" class="edge">
<title>varx1&#45;&gt;varx2</title>
<path fill="none" stroke="black" d="M85.26,-143.87C89.86,-119.67 98.31,-75.21 103.79,-46.39"/>
<polygon fill="black" stroke="black" points="107.3,-46.67 105.73,-36.19 100.43,-45.36 107.3,-46.67"/>
</g>
<!-- varx3 -->
<g id="node4" class="node">
<title>varx3</title>
<ellipse fill="none" stroke="black" cx="137" cy="-90" rx="27" ry="18"/>
<text text-anchor="middle" x="137" y="-86.3" font-family="Times,serif" font-size="14.00">x3</text>
</g>
<!-- varx1&#45;&gt;varx3 -->
<g id="edge9" class="edge">
<title>varx1&#45;&gt;varx3</title>
<path fill="none" stroke="black" d="M93.93,-145.81C101.21,-136.55 110.66,-124.52 118.85,-114.09"/>
<polygon fill="black" stroke="black" points="121.66,-116.18 125.09,-106.16 116.16,-111.86 121.66,-116.18"/>
</g>
<!-- varx3&#45;&gt;varx2 -->
<g id="edge12" class="edge">
<title>varx3&#45;&gt;varx2</title>
<path fill="none" stroke="black" d="M130.36,-72.41C127.09,-64.22 123.06,-54.14 119.38,-44.95"/>
<polygon fill="black" stroke="black" points="122.55,-43.45 115.59,-35.47 116.05,-46.05 122.55,-43.45"/>
</g>
<!-- varx4 -->
<g id="node5" class="node">
<title>varx4</title>
<ellipse fill="none" stroke="black" cx="137" cy="-234" rx="27" ry="18"/>
<text text-anchor="middle" x="137" y="-230.3" font-family="Times,serif" font-size="14.00">x4</text>
</g>
<!-- varx4&#45;&gt;varx1 -->
<g id="edge8" class="edge">
<title>varx4&#45;&gt;varx1</title>
<path fill="none" stroke="black" d="M125.07,-217.81C117.79,-208.55 108.34,-196.52 100.15,-186.09"/>
<polygon fill="black" stroke="black" points="102.84,-183.86 93.91,-178.16 97.34,-188.18 102.84,-183.86"/>
</g>
<!-- varx4&#45;&gt;varx3 -->
<g id="edge10" class="edge">
<title>varx4&#45;&gt;varx3</title>
<path fill="none" stroke="black" d="M137,-215.87C137,-191.67 137,-147.21 137,-118.39"/>
<polygon fill="black" stroke="black" points="140.5,-118.19 137,-108.19 133.5,-118.19 140.5,-118.19"/>
</g>
<!-- varx5 -->
<g id="node6" class="node">
<title>varx5</title>
<ellipse fill="none" stroke="black" cx="192" cy="-306" rx="27" ry="18"/>
<text text-anchor="middle" x="192" y="-302.3" font-family="Times,serif" font-size="14.00">x5</text>
</g>
<!-- varx5&#45;&gt;varx4 -->
<g id="edge7" class="edge">
<title>varx5&#45;&gt;varx4</title>
<path fill="none" stroke="black" d="M180.07,-289.81C172.79,-280.55 163.34,-268.52 155.15,-258.09"/>
<polygon fill="black" stroke="black" points="157.84,-255.86 148.91,-250.16 152.34,-260.18 157.84,-255.86"/>
</g>
<!-- varx6 -->
<g id="node7" class="node">
<title>varx6</title>
<ellipse fill="none" stroke="black" cx="192" cy="-162" rx="27" ry="18"/>
<text text-anchor="middle" x="192" y="-158.3" font-family="Times,serif" font-size="14.00">x6</text>
</g>
<!-- varx5&#45;&gt;varx6 -->
<g id="edge3" class="edge">
<title>varx5&#45;&gt;varx6</title>
<path fill="none" stroke="black" d="M192,-287.87C192,-263.67 192,-219.21 192,-190.39"/>
<polygon fill="black" stroke="black" points="195.5,-190.19 192,-180.19 188.5,-190.19 195.5,-190.19"/>
</g>
<!-- varx8 -->
<g id="node9" class="node">
<title>varx8</title>
<ellipse fill="none" stroke="black" cx="247" cy="-234" rx="27" ry="18"/>
<text text-anchor="middle" x="247" y="-230.3" font-family="Times,serif" font-size="14.00">x8</text>
</g>
<!-- varx5&#45;&gt;varx8 -->
<g id="edge1" class="edge">
<title>varx5&#45;&gt;varx8</title>
<path fill="none" stroke="black" d="M203.93,-289.81C211.21,-280.55 220.66,-268.52 228.85,-258.09"/>
<polygon fill="black" stroke="black" points="231.66,-260.18 235.09,-250.16 226.16,-255.86 231.66,-260.18"/>
</g>
<!-- varx7 -->
<g id="node8" class="node">
<title>varx7</title>
<ellipse fill="none" stroke="black" cx="228" cy="-90" rx="27" ry="18"/>
<text text-anchor="middle" x="228" y="-86.3" font-family="Times,serif" font-size="14.00">x7</text>
</g>
<!-- varx6&#45;&gt;varx7 -->
<g id="edge5" class="edge">
<title>varx6&#45;&gt;varx7</title>
<path fill="none" stroke="black" d="M200.35,-144.76C204.71,-136.28 210.15,-125.71 215.04,-116.2"/>
<polygon fill="black" stroke="black" points="218.23,-117.64 219.7,-107.15 212.01,-114.44 218.23,-117.64"/>
</g>
<!-- varx8&#45;&gt;varx6 -->
<g id="edge4" class="edge">
<title>varx8&#45;&gt;varx6</title>
<path fill="none" stroke="black" d="M235.07,-217.81C227.79,-208.55 218.34,-196.52 210.15,-186.09"/>
<polygon fill="black" stroke="black" points="212.84,-183.86 203.91,-178.16 207.34,-188.18 212.84,-183.86"/>
</g>
<!-- varx8&#45;&gt;varx7 -->
<g id="edge6" class="edge">
<title>varx8&#45;&gt;varx7</title>
<path fill="none" stroke="black" d="M244.71,-215.87C241.47,-191.67 235.52,-147.21 231.67,-118.39"/>
<polygon fill="black" stroke="black" points="235.1,-117.64 230.3,-108.19 228.16,-118.57 235.1,-117.64"/>
</g>
<!-- varx9 -->
<g id="node10" class="node">
<title>varx9</title>
<ellipse fill="none" stroke="black" cx="302" cy="-162" rx="27" ry="18"/>
<text text-anchor="middle" x="302" y="-158.3" font-family="Times,serif" font-size="14.00">x9</text>
</g>
<!-- varx8&#45;&gt;varx9 -->
<g id="edge2" class="edge">
<title>varx8&#45;&gt;varx9</title>
<path fill="none" stroke="black" d="M258.93,-217.81C266.21,-208.55 275.66,-196.52 283.85,-186.09"/>
<polygon fill="black" stroke="black" points="286.66,-188.18 290.09,-178.16 281.16,-183.86 286.66,-188.18"/>
</g>
</g>
</svg>
