<?xml version="1.0" encoding="UTF-8" standalone="no"?>
<!DOCTYPE svg PUBLIC "-//W3C//DTD SVG 1.1//EN"
 "http://www.w3.org/Graphics/SVG/1.1/DTD/svg11.dtd">
<!-- Generated by graphviz version 5.0.0 (20220707.2338)
 -->
<!-- Pages: 1 -->
<svg width="89pt" height="332pt"
 viewBox="0.00 0.00 89.00 332.00" xmlns="http://www.w3.org/2000/svg" xmlns:xlink="http://www.w3.org/1999/xlink">
<g id="graph0" class="graph" transform="scale(1 1) rotate(0) translate(4 328)">
<polygon fill="white" stroke="transparent" points="-4,4 -4,-328 85,-328 85,4 -4,4"/>
<!-- var7782220156096217089 -->
<g id="node1" class="node">
<title>var7782220156096217089</title>
<ellipse fill="none" stroke="black" cx="27" cy="-234" rx="27" ry="18"/>
<text text-anchor="middle" x="27" y="-230.3" font-family="Times,serif" font-size="14.00">l1</text>
</g>
<!-- var8646911284551352322 -->
<g id="node4" class="node">
<title>var8646911284551352322</title>
<ellipse fill="none" stroke="black" cx="54" cy="-162" rx="27" ry="18"/>
<text text-anchor="middle" x="54" y="-158.3" font-family="Times,serif" font-size="14.00">x2</text>
</g>
<!-- var7782220156096217089&#45;&gt;var8646911284551352322 -->
<g id="edge2" class="edge">
<title>var7782220156096217089&#45;&gt;var8646911284551352322</title>
<path fill="none" stroke="black" d="M33.4,-216.41C36.51,-208.34 40.33,-198.43 43.83,-189.35"/>
<polygon fill="black" stroke="black" points="47.13,-190.55 47.46,-179.96 40.6,-188.03 47.13,-190.55"/>
</g>
<!-- var7782220156096217090 -->
<g id="node2" class="node">
<title>var7782220156096217090</title>
<ellipse fill="none" stroke="black" cx="54" cy="-18" rx="27" ry="18"/>
<text text-anchor="middle" x="54" y="-14.3" font-family="Times,serif" font-size="14.00">l2</text>
</g>
<!-- var8646911284551352321 -->
<g id="node3" class="node">
<title>var8646911284551352321</title>
<ellipse fill="none" stroke="black" cx="54" cy="-306" rx="27" ry="18"/>
<text text-anchor="middle" x="54" y="-302.3" font-family="Times,serif" font-size="14.00">x1</text>
</g>
<!-- var8646911284551352321&#45;&gt;var7782220156096217089 -->
<g id="edge1" class="edge">
<title>var8646911284551352321&#45;&gt;var7782220156096217089</title>
<path fill="none" stroke="black" d="M47.6,-288.41C44.49,-280.34 40.67,-270.43 37.17,-261.35"/>
<polygon fill="black" stroke="black" points="40.4,-260.03 33.54,-251.96 33.87,-262.55 40.4,-260.03"/>
</g>
<!-- var8646911284551352321&#45;&gt;var8646911284551352322 -->
<g id="edge3" class="edge">
<title>var8646911284551352321&#45;&gt;var8646911284551352322</title>
<path fill="none" stroke="black" d="M57.65,-287.91C59.68,-277.57 61.98,-264.09 63,-252 64.34,-236.06 64.34,-231.94 63,-216 62.28,-207.5 60.93,-198.31 59.49,-190.01"/>
<polygon fill="black" stroke="black" points="62.91,-189.29 57.65,-180.09 56.03,-190.56 62.91,-189.29"/>
</g>
<!-- var8646911284551352323 -->
<g id="node5" class="node">
<title>var8646911284551352323</title>
<ellipse fill="none" stroke="black" cx="54" cy="-90" rx="27" ry="18"/>
<text text-anchor="middle" x="54" y="-86.3" font-family="Times,serif" font-size="14.00">x3</text>
</g>
<!-- var8646911284551352322&#45;&gt;var8646911284551352323 -->
<g id="edge4" class="edge">
<title>var8646911284551352322&#45;&gt;var8646911284551352323</title>
<path fill="none" stroke="black" d="M54,-143.7C54,-135.98 54,-126.71 54,-118.11"/>
<polygon fill="black" stroke="black" points="57.5,-118.1 54,-108.1 50.5,-118.1 57.5,-118.1"/>
</g>
<!-- var8646911284551352323&#45;&gt;var7782220156096217090 -->
<g id="edge5" class="edge">
<title>var8646911284551352323&#45;&gt;var7782220156096217090</title>
<path fill="none" stroke="black" d="M54,-71.7C54,-63.98 54,-54.71 54,-46.11"/>
<polygon fill="black" stroke="black" points="57.5,-46.1 54,-36.1 50.5,-46.1 57.5,-46.1"/>
</g>
</g>
</svg>
