<?xml version="1.0" encoding="UTF-8" standalone="no"?>
<!DOCTYPE svg PUBLIC "-//W3C//DTD SVG 1.1//EN"
 "http://www.w3.org/Graphics/SVG/1.1/DTD/svg11.dtd">
<!-- Generated by graphviz version 3.0.0 (20220315.2325)
 -->
<!-- Pages: 1 -->
<svg width="350pt" height="188pt"
 viewBox="0.00 0.00 350.00 188.00" xmlns="http://www.w3.org/2000/svg" xmlns:xlink="http://www.w3.org/1999/xlink">
<g id="graph0" class="graph" transform="scale(1 1) rotate(0) translate(4 184)">
<polygon fill="white" stroke="transparent" points="-4,4 -4,-184 346,-184 346,4 -4,4"/>
<!-- varl1 -->
<g id="node1" class="node">
<title>varl1</title>
<ellipse fill="none" stroke="black" cx="171" cy="-162" rx="27" ry="18"/>
<text text-anchor="middle" x="171" y="-158.3" font-family="Times,serif" font-size="14.00">l1</text>
</g>
<!-- varx1 -->
<g id="node2" class="node">
<title>varx1</title>
<ellipse fill="none" stroke="black" cx="27" cy="-18" rx="27" ry="18"/>
<text text-anchor="middle" x="27" y="-14.3" font-family="Times,serif" font-size="14.00">x1</text>
</g>
<!-- varx2 -->
<g id="node3" class="node">
<title>varx2</title>
<ellipse fill="none" stroke="black" cx="171" cy="-18" rx="27" ry="18"/>
<text text-anchor="middle" x="171" y="-14.3" font-family="Times,serif" font-size="14.00">x2</text>
</g>
<!-- varx1&#45;&#45;varx2 -->
<g id="edge1" class="edge">
<title>varx1&#45;&#45;varx2</title>
<path fill="none" stroke="black" d="M54.09,-18C79.67,-18 117.84,-18 143.55,-18"/>
</g>
<!-- varx2&#45;&#45;varl1 -->
<g id="edge3" class="edge">
<title>varx2&#45;&#45;varl1</title>
<path fill="none" stroke="black" d="M171,-36.24C171,-63.94 171,-116.3 171,-143.91"/>
</g>
<!-- varx3 -->
<g id="node4" class="node">
<title>varx3</title>
<ellipse fill="none" stroke="black" cx="315" cy="-18" rx="27" ry="18"/>
<text text-anchor="middle" x="315" y="-14.3" font-family="Times,serif" font-size="14.00">x3</text>
</g>
<!-- varx2&#45;&#45;varx3 -->
<g id="edge2" class="edge">
<title>varx2&#45;&#45;varx3</title>
<path fill="none" stroke="black" d="M198.09,-18C223.67,-18 261.84,-18 287.55,-18"/>
</g>
</g>
</svg>
